<svg width="500" height="500" viewBox="0 0 500 500" fill="none" xmlns="http://www.w3.org/2000/svg">
<path d="M91.4645 491.464L1.46447 401.464C0.526784 400.527 0 399.255 0 397.929V5C0 2.23858 2.23858 0 5 0H95C97.7614 0 100 2.23857 100 5V487.929C100 492.383 94.6143 494.614 91.4645 491.464Z" fill="#F94655"/>
<path d="M120 345V255C120 252.239 122.239 250 125 250H355.92C360.055 250 362.403 254.733 359.901 258.025L291.501 348.025C290.555 349.269 289.082 350 287.52 350H125C122.239 350 120 347.761 120 345Z" fill="#F94655"/>
<path d="M120 5V95C120 97.7614 122.239 100 125 100H487.278C491.821 100 494.01 94.4312 490.683 91.338L393.875 1.33804C392.949 0.478035 391.733 0 390.47 0H125C122.239 0 120 2.23858 120 5Z" fill="#F94655"/>
<path d="M268.614 117H358.38C361.979 117 364.4 120.688 362.967 123.99L316.972 229.99C316.179 231.818 314.377 233 312.385 233H222.619C219.02 233 216.599 229.312 218.032 226.01L264.027 120.01C264.819 118.182 266.622 117 268.614 117Z" fill="#F94655"/>
</svg>
