<svg width="38" height="30" viewBox="0 0 38 30" fill="none" xmlns="http://www.w3.org/2000/svg">
<g clip-path="url(#clip0_4_76)">
<path d="M32.1686 2.67155C29.7466 1.53897 27.1494 0.704531 24.4338 0.226614C24.3844 0.217391 24.335 0.240441 24.3095 0.286543C23.9755 0.892003 23.6055 1.68188 23.3464 2.30271C20.4256 1.85708 17.5199 1.85708 14.659 2.30271C14.3999 1.66808 14.0164 0.892003 13.6809 0.286543C13.6554 0.241979 13.606 0.218929 13.5566 0.226614C10.8425 0.703003 8.2453 1.53744 5.82181 2.67155C5.80083 2.68077 5.78285 2.69615 5.77092 2.71611C0.844537 10.2169 -0.505005 17.5333 0.157035 24.759C0.160031 24.7943 0.179502 24.8281 0.206464 24.8496C3.45675 27.2822 6.6052 28.7591 9.69519 29.7379C9.74465 29.7533 9.79704 29.7349 9.82851 29.6934C10.5595 28.6761 11.211 27.6035 11.7697 26.4755C11.8026 26.4094 11.7712 26.331 11.7038 26.3049C10.6703 25.9053 9.6862 25.4182 8.73957 24.865C8.6647 24.8204 8.6587 24.7113 8.72758 24.659C8.92679 24.5069 9.12605 24.3486 9.31626 24.1888C9.35068 24.1596 9.39863 24.1535 9.43909 24.1719C15.658 27.0656 22.3908 27.0656 28.5363 24.1719C28.5768 24.1519 28.6248 24.1581 28.6607 24.1873C28.8509 24.3471 29.0501 24.5069 29.2508 24.659C29.3197 24.7113 29.3152 24.8204 29.2404 24.865C28.2937 25.4289 27.3096 25.9053 26.2746 26.3034C26.2073 26.3295 26.1773 26.4094 26.2103 26.4755C26.7809 27.6019 27.4325 28.6745 28.1499 29.6918C28.1799 29.7349 28.2338 29.7533 28.2832 29.7379C31.3882 28.7591 34.5366 27.2822 37.7869 24.8496C37.8154 24.8281 37.8334 24.7958 37.8364 24.7605C38.6287 16.4068 36.5093 9.1504 32.218 2.71764C32.2075 2.69615 32.1896 2.68077 32.1686 2.67155ZM12.6984 20.3593C10.826 20.3593 9.28329 18.6074 9.28329 16.456C9.28329 14.3046 10.7961 12.5527 12.6984 12.5527C14.6155 12.5527 16.1434 14.3199 16.1134 16.456C16.1134 18.6074 14.6006 20.3593 12.6984 20.3593ZM25.325 20.3593C23.4527 20.3593 21.91 18.6074 21.91 16.456C21.91 14.3046 23.4228 12.5527 25.325 12.5527C27.2423 12.5527 28.77 14.3199 28.7401 16.456C28.7401 18.6074 27.2423 20.3593 25.325 20.3593Z" fill="#F94655"/>
</g>
<defs>
<clipPath id="clip0_4_76">
<rect width="38" height="30" fill="white"/>
</clipPath>
</defs>
</svg>
