<svg width="39" height="33" viewBox="0 0 39 33" fill="none" xmlns="http://www.w3.org/2000/svg">
<path d="M39 4.14839C37.5651 4.79892 36.023 5.23702 34.4045 5.4345C36.0572 4.42388 37.3262 2.82247 37.9226 0.914065C36.3773 1.85001 34.6645 2.5304 32.8412 2.89715C31.3836 1.30902 29.302 0.31665 27.001 0.31665C21.8351 0.31665 18.0392 5.23868 19.2058 10.3482C12.558 10.008 6.6625 6.75544 2.71538 1.81185C0.619125 5.48428 1.62825 10.2885 5.19025 12.7213C3.8805 12.6781 2.6455 12.3114 1.56812 11.699C1.48037 15.4843 4.13725 19.0257 7.98525 19.8139C6.85913 20.1258 5.62575 20.1989 4.37125 19.9533C5.3885 23.1993 8.34275 25.5607 11.8463 25.6271C8.4825 28.3204 4.2445 29.5236 0 29.0124C3.54088 31.3307 7.748 32.6833 12.2655 32.6833C27.1213 32.6833 35.5144 19.8704 35.0074 8.37841C36.5706 7.22508 37.9275 5.78631 39 4.14839Z" fill="#F94655"/>
</svg>
