<svg width="500" height="500" viewBox="0 0 500 500" fill="none" xmlns="http://www.w3.org/2000/svg">
<rect width="500" height="500" fill="#F94655"/>
<path d="M173.47 416.498L122.47 365.665C121.529 364.727 121 363.453 121 362.124V126C121 123.239 123.239 121 126 121H177C179.761 121 182 123.239 182 126V412.957C182 417.407 176.622 419.64 173.47 416.498Z" fill="black"/>
<path d="M194 329V278C194 275.239 196.239 273 199 273H333.922C338.057 273 340.405 277.732 337.904 281.025L299.159 332.025C298.214 333.269 296.741 334 295.178 334H199C196.239 334 194 331.761 194 329Z" fill="black"/>
<path d="M194 126V177C194 179.761 196.239 182 199 182H412.311C416.849 182 419.04 176.44 415.721 173.344L361.053 122.344C360.127 121.48 358.908 121 357.642 121H199C196.239 121 194 123.239 194 126Z" fill="black"/>
<path d="M285.953 192H336.394C339.99 192 342.41 195.682 340.984 198.983L314.637 259.983C313.846 261.814 312.041 263 310.046 263H259.606C256.01 263 253.59 259.318 255.016 256.017L281.363 195.017C282.154 193.186 283.958 192 285.953 192Z" fill="black"/>
</svg>
