<svg width="500" height="500" viewBox="0 0 500 500" fill="none" xmlns="http://www.w3.org/2000/svg">
<path d="M163.47 404.498L112.47 353.665C111.529 352.727 111 351.453 111 350.124V114C111 111.239 113.239 109 116 109H167C169.761 109 172 111.239 172 114V400.957C172 405.407 166.622 407.64 163.47 404.498Z" fill="#F94655"/>
<path d="M184 317V266C184 263.239 186.239 261 189 261H323.922C328.057 261 330.405 265.732 327.904 269.025L289.159 320.025C288.214 321.269 286.741 322 285.178 322H189C186.239 322 184 319.761 184 317Z" fill="#F94655"/>
<path d="M184 114V165C184 167.761 186.239 170 189 170H402.311C406.849 170 409.04 164.44 405.721 161.344L351.053 110.344C350.127 109.48 348.908 109 347.642 109H189C186.239 109 184 111.239 184 114Z" fill="#F94655"/>
<path d="M275.953 180H326.394C329.99 180 332.41 183.682 330.984 186.983L304.637 247.983C303.846 249.814 302.041 251 300.046 251H249.606C246.01 251 243.59 247.318 245.016 244.017L271.363 183.017C272.154 181.186 273.958 180 275.953 180Z" fill="#F94655"/>
</svg>
