<svg width="142" height="142" viewBox="0 0 142 142" fill="none" xmlns="http://www.w3.org/2000/svg">
<g clip-path="url(#clip0_12_70)">
<path d="M41.9898 16.7237C26.1258 25.9038 13.1183 33.5308 13.1183 33.6972C13.1183 33.8358 26.1535 41.4905 42.073 50.6706L71.0277 67.3667L100.149 50.5597C116.179 41.3241 129.159 33.6694 129.048 33.5585C128.771 33.3089 71.0555 -9.91821e-05 70.9445 0.0276413C70.889 0.0276413 57.8816 7.54365 41.9898 16.7237Z" fill="#F94655"/>
<path d="M8.59766 74.6886V108.386L37.1086 124.832C52.7785 133.874 65.8691 141.445 66.2297 141.667L66.8398 142.055L66.7844 108.303L66.7012 74.5222L38.7449 58.3808C23.3801 49.5058 10.3172 41.9621 9.70703 41.6292L8.59766 41.0191V74.6886Z" fill="#F94655"/>
<path d="M104.281 57.7984L75.2988 74.5222L75.2156 108.303L75.1602 142.055L76.0477 141.501C76.5469 141.196 89.582 133.68 104.975 124.805C120.395 115.93 133.07 108.58 133.208 108.469C133.319 108.358 133.375 93.1597 133.347 74.6886L133.264 41.0746L104.281 57.7984Z" fill="#F94655"/>
</g>
<defs>
<clipPath id="clip0_12_70">
<rect width="142" height="142" fill="white"/>
</clipPath>
</defs>
</svg>
