<svg width="127" height="127" viewBox="0 0 127 127" fill="none" xmlns="http://www.w3.org/2000/svg">
<path d="M54.0991 0.272902C28.7239 1.71157 11.435 8.2104 10.2444 16.768C10.1203 17.7602 10.17 17.9586 10.8149 18.6284C11.7575 19.6206 15.0317 21.7786 17.3633 22.9444C23.118 25.8465 30.9563 27.8805 40.8782 29.1208C48.4932 30.0881 53.4541 30.3362 63.5 30.3362C73.5459 30.3362 78.5069 30.0881 86.1219 29.1208C96.0438 27.8805 103.882 25.8465 109.637 22.9444C111.968 21.7786 115.243 19.6206 116.185 18.6284C116.83 17.9586 116.88 17.7602 116.756 16.768C115.565 8.11118 98.425 1.73638 72.4297 0.248096C67.5432 -0.0247555 59.0848 -0.0247555 54.0991 0.272902Z" fill="#F94655"/>
<path d="M10.1699 36.8102V48.5676L11.2365 49.4854C15.9494 53.5286 23.9117 56.7036 34.1809 58.6383C37.4303 59.2584 45.6406 60.2258 50.3535 60.5483C52.7348 60.6971 58.6631 60.8459 63.5 60.8459C80.6152 60.8459 93.1664 59.3081 103.188 56.0338C108.347 54.3223 112.861 51.9907 115.788 49.4854L116.83 48.5676V36.8102C116.83 30.3362 116.756 25.0528 116.681 25.0528C116.582 25.0528 115.863 25.4497 115.069 25.921C104.676 32.2461 87.2877 35.4708 63.5 35.4708C39.7123 35.4708 22.3242 32.2461 11.9311 25.921C11.1373 25.4497 10.418 25.0528 10.3187 25.0528C10.2443 25.0528 10.1699 30.3362 10.1699 36.8102Z" fill="#F94655"/>
<path d="M10.1699 67.196V79.0774L11.3605 80.0696C20.3398 87.5606 37.7031 91.3062 63.5 91.3062C78.0852 91.3062 88.6271 90.2892 98.1025 87.9575C105.817 86.0476 111.571 83.4679 115.664 80.0696L116.83 79.0774V67.196V55.3146L115.168 56.3564C107.355 61.1437 94.9771 64.269 78.6309 65.5341C73.1986 65.9558 53.8014 65.9558 48.3691 65.5341C32.0229 64.269 19.6453 61.1437 11.8566 56.3564L10.1699 55.3146V67.196Z" fill="#F94655"/>
<path d="M10.2196 98.5242L10.294 111.249L10.9885 112.564C12.2783 115.019 14.3371 116.88 18.033 118.914C30.0137 125.512 56.5547 128.588 80.2928 126.132C99.7149 124.123 112.489 119.261 116.012 112.564L116.706 111.249L116.78 98.5242L116.855 85.8242L115.168 86.8412C107.305 91.6781 94.5803 94.8283 78.1348 96.0438C72.4545 96.4654 54.5455 96.4654 48.8653 96.0438C32.4198 94.8283 19.6949 91.6781 11.8319 86.8412L10.1451 85.8242L10.2196 98.5242Z" fill="#F94655"/>
</svg>
