<svg width="120" height="120" viewBox="0 0 120 120" fill="none" xmlns="http://www.w3.org/2000/svg">
<path d="M0.375 0.375C0.164062 0.5625 0 0.867188 0 1.03125C0 1.19531 1.3125 6.51562 2.90625 12.8438C6.02344 25.1719 6.60938 26.8594 8.88281 30.2109C9.98438 31.8281 13.9688 36.0938 14.3906 36.0938C14.5312 36.0938 19.5234 31.2188 25.5 25.2422L36.3516 14.3906L34.0078 12.1406C30.7031 8.95312 27.75 7.07812 24.2344 5.88281C22.7344 5.39062 1.5 0 1.03125 0C0.867188 0 0.5625 0.164062 0.375 0.375Z" fill="#F94655"/>
<path d="M93.3519 0.328125C92.8128 0.492188 91.8988 0.914062 91.3597 1.24219C90.7972 1.57031 70.43 21.7969 45.7972 46.4531C-4.19499 96.4922 0.117514 91.8516 0.140951 95.625C0.164389 99 -0.0465488 98.7188 10.4769 109.266C21.141 119.93 21.0238 119.859 24.3753 119.883C27.3519 119.883 28.5941 119.203 32.2269 115.57L35.016 112.734L31.3597 109.055C29.3441 107.016 27.5863 105.047 27.4456 104.695C26.3206 101.742 29.0863 98.9766 32.0394 100.102C32.391 100.242 34.3597 102 36.3988 104.016L40.0785 107.672L42.7738 105L45.4691 102.305L39.0472 95.8594C33.4691 90.2812 32.6019 89.2969 32.4613 88.5234C32.1097 86.625 32.9066 85.125 34.5706 84.4922C36.6566 83.6953 36.6566 83.6953 43.8988 90.8906L50.391 97.3828L53.1566 94.6172L55.8988 91.875L52.0785 88.0547C49.0081 84.9844 48.2113 84.0469 48.0472 83.3672C47.4847 80.8359 49.6175 78.6094 52.1956 79.1016C52.9456 79.2422 53.6722 79.8516 56.9535 83.1094L60.8441 86.9531L63.516 84.2578L66.2113 81.5625L60.0941 75.3984C56.7191 72.0234 53.7894 69 53.5785 68.6719C53.0628 67.875 53.0863 65.9297 53.6488 65.0625C54.3285 64.0312 55.2894 63.5156 56.555 63.5156C57.1878 63.5156 57.9144 63.6328 58.1956 63.7734C58.4769 63.9141 61.5238 66.8438 64.9925 70.2656L71.2503 76.5234L73.8753 73.8984L76.5238 71.25L72.8441 67.5703C70.8285 65.5312 69.0706 63.5625 68.93 63.2109C67.805 60.2578 70.5706 57.4922 73.5238 58.6172C73.8753 58.7578 75.8441 60.5156 77.8831 62.5312L81.5628 66.1875L84.2581 63.5156L86.9535 60.8203L80.6488 54.4922C77.1566 51.0234 74.2035 47.8594 74.0628 47.5078C73.4066 45.7031 74.2269 43.7578 75.9613 43.0312C78.0941 42.1641 78.0941 42.1406 85.3831 49.4062L91.8753 55.8984L94.641 53.1328L97.3831 50.3906L93.5628 46.5703C90.4925 43.5 89.6956 42.5625 89.5316 41.8828C88.9691 39.3516 91.1019 37.125 93.68 37.6172C94.43 37.7578 95.1566 38.3672 98.4378 41.625L102.328 45.4688L105 42.7734L107.696 40.0781L101.578 33.9141C98.2035 30.5391 95.2738 27.5156 95.0628 27.1875C94.5472 26.3906 94.5706 24.4453 95.1331 23.5781C95.8128 22.5469 96.7738 22.0312 98.0394 22.0312C98.6722 22.0312 99.3988 22.1484 99.68 22.2891C99.9613 22.4297 103.008 25.3594 106.453 28.7812L112.735 35.0391L115.547 32.2266C119.203 28.5938 119.883 27.3516 119.883 24.375C119.86 21.0234 119.93 21.1406 109.266 10.4766C101.602 2.83594 99.7503 1.10156 98.7894 0.703125C97.3128 0.0703125 94.6878 -0.117188 93.3519 0.328125Z" fill="#F94655"/>
<path d="M30.2812 30.3047L19.4531 41.1328L24.7266 46.4062L30 51.6797L40.9688 40.7109L51.9141 29.7188L46.6406 24.5859C43.7344 21.7734 41.3203 19.4531 41.25 19.4531C41.1797 19.4531 36.2578 24.3281 30.2812 30.3047Z" fill="#F94655"/>
<path d="M79.2188 79.3359L68.3203 90.2344L74.7656 96.6797C78.3047 100.219 81.3047 103.125 81.4453 103.125C81.75 103.125 103.125 81.75 103.125 81.4453C103.125 81.2109 90.4688 68.4375 90.2344 68.4375C90.1641 68.4375 85.2188 73.3359 79.2188 79.3359Z" fill="#F94655"/>
<path d="M97.2656 97.3828L86.3672 108.305L90.7031 112.57C95.3672 117.188 96.6797 118.148 99.7266 119.203C101.391 119.789 101.93 119.859 104.531 119.859C107.086 119.859 107.719 119.766 109.383 119.227C114 117.703 117.539 114.117 119.203 109.336C119.789 107.672 119.859 107.133 119.859 104.531C119.859 101.93 119.789 101.391 119.203 99.7266C118.148 96.6562 117.188 95.3672 112.641 90.75C110.32 88.4062 108.375 86.4844 108.305 86.4844C108.211 86.4844 103.266 91.3828 97.2656 97.3828Z" fill="#F94655"/>
</svg>
