<svg width="133" height="102" viewBox="0 0 133 102" fill="none" xmlns="http://www.w3.org/2000/svg">
<g clip-path="url(#clip0_12_82)">
<path d="M112.59 9.08326C104.113 5.23249 95.0229 2.3954 85.5184 0.770488C85.3453 0.739128 85.1724 0.817499 85.0833 0.974245C83.9142 3.03281 82.6192 5.71838 81.7124 7.82922C71.4897 6.31406 61.3196 6.31406 51.3065 7.82922C50.3995 5.67146 49.0575 3.03281 47.8832 0.974245C47.794 0.822729 47.6211 0.744358 47.448 0.770488C37.9488 2.39021 28.8586 5.22729 20.3763 9.08326C20.3029 9.11461 20.24 9.1669 20.1982 9.23478C2.95588 34.7374 -1.76752 59.6131 0.549623 84.1805C0.560108 84.3007 0.628258 84.4156 0.722622 84.4887C12.0986 92.7596 23.1182 97.7808 33.9332 101.109C34.1063 101.161 34.2896 101.099 34.3998 100.957C36.9581 97.4987 39.2386 93.8517 41.1938 90.0165C41.3092 89.792 41.1991 89.5255 40.9632 89.4366C37.346 88.0782 33.9017 86.4219 30.5885 84.541C30.3264 84.3895 30.3055 84.0184 30.5465 83.8407C31.2438 83.3235 31.9412 82.7853 32.6069 82.2419C32.7274 82.1427 32.8952 82.1217 33.0368 82.1844C54.8031 92.023 78.3677 92.023 99.8772 82.1844C100.019 82.1166 100.187 82.1375 100.312 82.2367C100.978 82.7801 101.675 83.3235 102.378 83.8407C102.619 84.0184 102.603 84.3895 102.341 84.541C99.0281 86.4584 95.5837 88.0782 91.9613 89.4314C91.7254 89.5203 91.6205 89.792 91.7359 90.0165C93.7332 93.8464 96.0136 97.4933 98.5247 100.952C98.6296 101.099 98.8183 101.161 98.9913 101.109C109.859 97.7808 120.878 92.7596 132.254 84.4887C132.354 84.4156 132.417 84.3058 132.427 84.1857C135.2 55.7831 127.782 31.1114 112.763 9.23997C112.726 9.1669 112.664 9.11461 112.59 9.08326ZM44.4443 69.2215C37.8911 69.2215 32.4915 63.2653 32.4915 55.9504C32.4915 48.6355 37.7864 42.6793 44.4443 42.6793C51.1544 42.6793 56.5018 48.6878 56.3969 55.9504C56.3969 63.2653 51.102 69.2215 44.4443 69.2215ZM88.6376 69.2215C82.0846 69.2215 76.685 63.2653 76.685 55.9504C76.685 48.6355 81.9797 42.6793 88.6376 42.6793C95.3479 42.6793 100.695 48.6878 100.59 55.9504C100.59 63.2653 95.3479 69.2215 88.6376 69.2215Z" fill="#F94655"/>
</g>
<defs>
<clipPath id="clip0_12_82">
<rect width="133" height="102" fill="white"/>
</clipPath>
</defs>
</svg>
