<svg width="121" height="121" viewBox="0 0 121 121" fill="none" xmlns="http://www.w3.org/2000/svg">
<path d="M121 68.6473V52.3527C112.676 49.3932 107.418 48.5613 104.771 42.1735V42.1685C102.114 35.7605 105.275 31.4096 109.041 23.479L97.521 11.9588C89.6509 15.6997 85.2546 18.8911 78.8315 16.2291H78.8265C72.4286 13.5772 71.5917 8.28346 68.6473 0H52.3527C49.4184 8.24312 48.5765 13.5722 42.1735 16.2291H42.1685C35.7605 18.8911 31.4197 15.735 23.479 11.9588L11.9588 23.479C15.7149 31.3844 18.8911 35.7505 16.2291 42.1685C13.5722 48.5765 8.24312 49.4184 0 52.3527V68.6473C8.228 71.5715 13.5722 72.4235 16.2291 78.8265C18.9012 85.2899 15.6544 89.7467 11.9588 97.5159L23.479 109.041C31.3541 105.295 35.7505 102.109 42.1685 104.771H42.1735C48.5765 107.423 49.4134 112.732 52.3527 121H68.6473C71.5816 112.752 72.4286 107.438 78.8668 104.756H78.8718C85.2344 102.114 89.5602 105.265 97.5159 109.046L109.036 97.521C105.285 89.6408 102.104 85.2546 104.761 78.8365C107.418 72.4286 112.767 71.5765 121 68.6473ZM60.5 80.6667C49.363 80.6667 40.3333 71.637 40.3333 60.5C40.3333 49.363 49.363 40.3333 60.5 40.3333C71.637 40.3333 80.6667 49.363 80.6667 60.5C80.6667 71.637 71.637 80.6667 60.5 80.6667Z" fill="#F94655"/>
</svg>
