<svg width="134" height="134" viewBox="0 0 134 134" fill="none" xmlns="http://www.w3.org/2000/svg">
<path d="M50.7734 0.375778C45.1465 1.5797 40.4355 6.00274 38.8652 11.6035C38.525 12.8074 38.3941 14.6656 38.2895 19.3766L38.1586 25.6055H24.3398C9.34336 25.6055 9.68359 25.5793 6.62148 27.1234C5.07734 27.9348 2.87891 30.0547 1.8582 31.7297C0.0785156 34.7133 0 35.4199 0 49.7359V62.5078H5.70547C12.327 62.5078 14.0543 62.7957 17.1426 64.3137C24.523 67.9777 28.2395 76.0648 26.1719 84.0734C24.9418 88.9152 21.6965 92.9195 17.2473 95.0395C15.8863 95.6938 14.2113 96.348 13.4785 96.5312C12.7719 96.6883 9.42188 96.8977 6.07187 96.9762L0 97.1332V109.853C0 123.776 0.0261719 124.09 1.54414 127.1C2.53867 129.037 4.92031 131.418 6.85703 132.413C9.8668 133.931 10.1809 133.957 24.1043 133.957H36.8238L36.9809 127.859C37.0594 124.535 37.2687 121.185 37.4258 120.479C37.609 119.746 38.2633 118.071 38.9176 116.71C41.0375 112.261 45.0418 109.015 49.8836 107.785C52.3438 107.157 55.9555 107.105 58.3371 107.654C63.1789 108.806 67.3402 112.182 69.6434 116.814C71.1613 119.903 71.4492 121.63 71.4492 128.252V133.957H84.2211C95.9199 133.957 97.15 133.905 98.8773 133.46C103.222 132.334 106.31 129.351 107.854 124.823C108.325 123.514 108.352 122.415 108.352 109.617V95.7984L114.58 95.6676C119.291 95.5629 121.15 95.432 122.354 95.0918C130.467 92.8148 135.361 84.5969 133.607 76.248C132.482 70.909 128.321 66.3027 123.008 64.5492C121.516 64.052 120.521 63.9734 114.895 63.8426L108.482 63.6855L108.352 49.4219C108.221 36.807 108.168 35.0273 107.776 34.059C106.284 30.3426 103.614 27.673 99.898 26.1813C98.9297 25.7887 97.15 25.7363 84.5352 25.6055L70.2715 25.4746L70.1144 19.0625C69.9836 13.4355 69.9051 12.441 69.4078 10.9492C66.8168 3.15001 58.8605 -1.37773 50.7734 0.375778Z" fill="#F94655"/>
</svg>
