<svg width="141" height="142" viewBox="0 0 141 142" fill="none" xmlns="http://www.w3.org/2000/svg">
<path d="M42.7692 0.454437C37.1892 2.30525 34.1229 8.16153 35.8356 13.7139C36.7472 16.5592 38.5704 18.6862 41.3604 20.0951L42.5482 20.7028L42.4653 24.4873L42.3825 28.2718L38.6532 28.4375C36.1671 28.548 34.4544 28.769 33.5428 29.1005C27.5208 31.2275 23.2943 35.7302 21.775 41.6141C21.2778 43.6031 21.2501 44.9566 21.2501 76.0336C21.2501 111.945 21.1673 110.066 23.1286 114.044C24.6203 117.083 27.7694 120.204 30.9185 121.751C34.3715 123.436 36.0842 123.713 43.2941 123.713H49.4266V131.033C49.4266 139.21 49.5371 139.845 51.1393 140.839C52.9901 142.027 53.1006 141.972 68.3214 132.442L82.2991 123.713H93.2658C105.807 123.713 106.746 123.602 110.476 121.724C113.735 120.094 116.525 117.304 118.155 114.044C120.254 109.845 120.172 111.613 120.089 75.1496L120.006 42.6362L119.232 40.4539C118.21 37.5258 117.326 36.0893 115.144 33.7965C113.072 31.6419 111.111 30.3436 108.321 29.2938C106.829 28.7414 105.779 28.5756 102.741 28.4375L99.0116 28.2718L98.9287 24.5149L98.8458 20.7304L100.393 19.8741C107.934 15.62 107.796 4.95714 100.172 1.20029C96.5807 -0.567642 92.9343 -0.374283 89.6194 1.72514C87.8239 2.88535 86.857 4.04555 85.7797 6.31071C85.0338 7.9129 84.9234 8.38252 84.9234 10.5924C84.9234 12.8024 85.0338 13.272 85.8073 14.9294C86.8294 17.1117 88.5973 18.9901 90.5586 19.9846L91.9951 20.7028L91.9122 24.4873L91.8293 28.2718H70.697H49.5647L49.4818 24.4044L49.3989 20.5094L50.3934 20.1503C51.8299 19.6531 54.537 17.0012 55.3657 15.3161C58.7358 8.41014 54.1226 0.482071 46.4432 0.0677032C44.8686 -0.0151672 43.9294 0.0953369 42.7692 0.454437ZM55.0066 49.7079C59.6198 50.6748 63.128 54.5421 63.4595 59.0448C63.6529 61.973 62.4927 63.4923 60.0618 63.4923C58.0176 63.4923 56.885 62.3597 56.4983 59.9564C56.1668 57.8294 54.8685 56.5863 52.9624 56.5863C51.1393 56.5863 49.4266 58.3542 49.4266 60.205C49.4266 61.1719 48.6531 62.5255 47.7968 63.0227C47.3548 63.2713 46.4156 63.4923 45.725 63.4923C44.6476 63.4923 44.3161 63.3542 43.4598 62.4978L42.4653 61.4757L42.5758 59.3763C42.7968 54.7355 46.0288 50.9234 50.6696 49.7908C52.4652 49.3488 53.2387 49.3488 55.0066 49.7079ZM90.3653 49.7079C94.9785 50.6748 98.4867 54.5698 98.8182 59.1001C99.0116 61.973 97.8514 63.4923 95.4205 63.4923C93.3763 63.4923 92.2437 62.3597 91.857 59.9564C91.7741 59.2935 91.4702 58.4371 91.2216 58.078C90.2548 56.5863 88.1001 56.172 86.5255 57.1388C85.4482 57.7741 85.1167 58.3542 84.7852 60.2327C84.3985 62.3321 83.1278 63.4923 81.1941 63.4923C75.4207 63.4923 77.4649 53.5201 83.846 50.509C86.0836 49.4593 88.0449 49.2383 90.3653 49.7079ZM49.3713 87.8014C62.0231 93.2709 79.4262 93.2433 92.0503 87.7738C93.4315 87.1936 94.9785 86.6964 95.5033 86.6964C98.321 86.6964 99.9232 90.0942 98.1276 92.2488C96.4425 94.2378 87.4924 97.2488 79.6748 98.4642C75.5036 99.0996 65.9181 99.0996 61.7192 98.4642C57.4651 97.8012 54.2331 97.0278 50.5315 95.7571C45.6973 94.0996 43.4598 92.9947 42.9626 92.0002C42.0786 90.2599 42.6311 87.9395 44.1228 87.1384C45.3382 86.4478 46.6365 86.6412 49.3713 87.8014Z" fill="#F94655"/>
<path d="M8.12879 56.8347C5.06253 57.5805 1.9134 60.2877 0.780819 63.1329C0.145468 64.6799 0.117844 65.039 0.034972 73.7405C-0.0478999 82.3316 -0.0202759 82.8564 0.532203 84.4862C1.60954 87.6906 3.23935 89.4862 6.30561 90.9226C7.85255 91.6685 8.4879 91.779 11.0846 91.8895L14.0679 92.0276V74.293V56.5861L11.5265 56.6137C10.1177 56.6413 8.5984 56.7242 8.12879 56.8347Z" fill="#F94655"/>
<path d="M127.326 74.2657V91.9451H129.398C134.619 91.9451 138.265 89.9285 140.226 85.923L141 84.3485V74.1276V63.9068L140.337 62.6637C138.127 58.4648 134.84 56.5864 129.785 56.5864H127.326V74.2657Z" fill="#F94655"/>
</svg>
