<svg width="142" height="142" viewBox="0 0 142 142" fill="none" xmlns="http://www.w3.org/2000/svg">
<path d="M52.418 7.1832C41.6016 10.4281 32.3938 15.8363 24.5727 23.5188C19.1645 28.8438 15.0043 34.5016 11.6762 40.9914L9.95667 44.375H23.9625H37.9961L38.1071 43.7371C41.2133 28.7883 47.0375 15.9195 53.9989 8.59766C55.3024 7.21094 56.2453 6.10157 56.1344 6.1293C55.9957 6.1293 54.3317 6.60078 52.418 7.1832Z" fill="#F94655"/>
<path d="M88.0289 8.59766C94.9625 15.8918 100.759 28.7605 103.893 43.7371L104.004 44.375H118.01H132.016L130.601 41.5738C125.387 31.1457 117.372 22.0488 107.831 15.7254C101.979 11.8148 95.7668 8.93047 89.2215 7.04453C87.4188 6.51758 85.8656 6.10156 85.7824 6.10156C85.6992 6.10156 86.6977 7.23867 88.0289 8.59766Z" fill="#F94655"/>
<path d="M67.6719 9.51289C59.9617 12.1199 52.3902 23.9348 48.2578 39.6879C47.6477 42.0453 47.1484 44.0422 47.1484 44.1531C47.1484 44.2918 57.8816 44.375 71 44.375C84.1184 44.375 94.8516 44.2918 94.8516 44.1531C94.8516 44.0422 94.3523 42.0453 93.7422 39.6879C88.9441 21.4109 79.6531 8.84727 70.8891 8.875C70.1125 8.875 68.6703 9.18008 67.6719 9.51289Z" fill="#F94655"/>
<path d="M6.85041 53.4441C6.57307 53.8879 5.29729 60.1281 4.93674 62.6797C4.7426 64.1773 4.57619 67.8105 4.60393 71.1387C4.60393 77.3234 4.99221 81.0121 6.18479 85.9766L6.82268 88.6113L21.7438 88.6945L36.6649 88.75L36.4985 87.8625C35.3613 81.3449 35.3613 60.6551 36.4985 54.1375L36.6649 53.25H21.827C13.6453 53.25 6.90588 53.3332 6.85041 53.4441Z" fill="#F94655"/>
<path d="M45.2348 56.0789C44.7078 60.766 44.375 66.4238 44.375 71C44.375 75.5762 44.7078 81.234 45.2348 85.8934L45.5676 88.75H71H96.4324L96.7652 85.8934C97.8746 76.0477 97.8746 65.9523 96.7652 56.0789L96.4324 53.25H71H45.5676L45.2348 56.0789Z" fill="#F94655"/>
<path d="M105.502 54.1375C106.639 60.5996 106.639 80.291 105.502 87.7238L105.335 88.75L120.256 88.6945L135.177 88.6113L135.815 85.9766C137.036 80.9566 137.396 77.3512 137.396 71C137.396 64.6488 137.036 61.0434 135.815 56.0234L135.177 53.3887L120.256 53.3055L105.335 53.25L105.502 54.1375Z" fill="#F94655"/>
<path d="M11.3988 100.426C14.5605 106.749 18.4434 112.213 23.4078 117.289C27.2629 121.227 29.9254 123.446 34.252 126.33C39.8543 130.074 46.1777 133.014 52.3625 134.817C53.9988 135.26 55.5797 135.732 55.8848 135.815C56.1898 135.898 55.3855 134.872 54.0266 133.43C46.982 126.053 41.4352 113.766 38.107 98.235L37.9961 97.6249H23.9902H9.98438L11.3988 100.426Z" fill="#F94655"/>
<path d="M47.1484 97.8191C47.1484 97.9578 47.6477 99.9547 48.2578 102.312C53.0281 120.506 62.3191 133.125 71 133.125C79.9582 133.125 89.277 120.09 94.1305 100.759C94.5187 99.2059 94.8516 97.8746 94.8516 97.7914C94.8516 97.7082 84.1184 97.625 71 97.625C57.8816 97.625 47.1484 97.7082 47.1484 97.8191Z" fill="#F94655"/>
<path d="M103.893 98.2352C100.565 113.711 94.9902 126.053 88.0289 133.402C86.6977 134.761 85.6992 135.898 85.7824 135.898C85.8656 135.898 87.4465 135.455 89.277 134.928C97.0703 132.681 104.586 128.909 111.492 123.723C114.071 121.809 119.813 116.235 122.225 113.378C124.805 110.272 128.355 104.864 130.324 100.981L132.043 97.625H118.038H104.004L103.893 98.2352Z" fill="#F94655"/>
</svg>
