<svg width="287" height="438" viewBox="0 0 287 438" fill="none" xmlns="http://www.w3.org/2000/svg">
<g opacity="0.7" clip-path="url(#clip0_12_3)">
<rect y="438" width="6" height="44" transform="rotate(-90 0 438)" fill="#878A8C"/>
<rect x="6" y="438" width="6" height="44" transform="rotate(180 6 438)" fill="#878A8C"/>
<rect width="6" height="44" transform="matrix(0 1 1 0 0 0)" fill="#878A8C"/>
<rect width="6" height="44" transform="matrix(-1 0 0 1 6 0)" fill="#878A8C"/>
<rect width="6" height="44" transform="matrix(0 -1 -1 0 287 438)" fill="#878A8C"/>
<rect width="6" height="44" transform="matrix(1 0 0 -1 281 438)" fill="#878A8C"/>
<rect x="287" width="6" height="44" transform="rotate(90 287 0)" fill="#878A8C"/>
<rect x="281" width="6" height="44" fill="#878A8C"/>
<path d="M133.446 345.353L117.066 361.733C116.896 361.904 116.664 362 116.423 362H44.91C44.4074 362 44 361.593 44 361.09V344.71C44 344.207 44.4074 343.8 44.91 343.8H132.803C133.614 343.8 134.02 344.78 133.446 345.353Z" fill="#878A8C"/>
<path d="M106.79 340.16H90.41C89.9075 340.16 89.5 339.753 89.5 339.25V297.223C89.5 296.47 90.3614 296.043 90.9605 296.498L107.341 308.947C107.567 309.119 107.7 309.387 107.7 309.672V339.25C107.7 339.753 107.292 340.16 106.79 340.16Z" fill="#878A8C"/>
<path d="M44.91 340.16H61.29C61.7926 340.16 62.2 339.753 62.2 339.25L62.2 273.316C62.2 272.489 61.1865 272.09 60.6235 272.696L44.2435 290.315C44.087 290.483 44 290.705 44 290.935L44 339.25C44 339.753 44.4074 340.16 44.91 340.16Z" fill="#878A8C"/>
<path d="M65.2941 313.112V296.775C65.2941 296.12 65.9653 295.679 66.5662 295.94L85.8583 304.311C86.1909 304.455 86.4061 304.783 86.4061 305.146V321.483C86.4061 322.138 85.7349 322.579 85.1339 322.318L65.8419 313.947C65.5092 313.803 65.2941 313.475 65.2941 313.112Z" fill="#878A8C"/>
<g clip-path="url(#clip1_12_3)">
<path d="M53.9665 93.5043C51.4371 99.1131 49.5735 105.128 48.5062 111.416C48.4856 111.531 48.5371 111.645 48.64 111.704C49.9922 112.478 51.7563 113.335 53.1428 113.935C52.1476 120.699 52.1476 127.428 53.1428 134.053C51.7255 134.653 49.9922 135.541 48.64 136.318C48.5405 136.377 48.489 136.491 48.5062 136.606C49.5701 142.891 51.4337 148.906 53.9665 154.518C53.9871 154.566 54.0215 154.608 54.0661 154.636C70.8178 166.044 87.1577 169.169 103.295 167.636C103.374 167.629 103.45 167.584 103.498 167.522C108.93 159.995 112.229 152.704 114.415 145.548C114.449 145.433 114.408 145.312 114.315 145.239C112.043 143.547 109.648 142.038 107.129 140.744C106.981 140.668 106.806 140.74 106.748 140.896C105.855 143.29 104.767 145.569 103.532 147.761C103.432 147.934 103.189 147.948 103.072 147.789C102.732 147.327 102.379 146.866 102.022 146.425C101.957 146.346 101.943 146.235 101.984 146.141C108.447 131.739 108.447 116.148 101.984 101.916C101.939 101.822 101.953 101.711 102.018 101.628C102.375 101.187 102.732 100.726 103.072 100.261C103.189 100.102 103.432 100.112 103.532 100.285C104.791 102.478 105.855 104.757 106.744 107.153C106.803 107.31 106.981 107.379 107.129 107.303C109.644 105.981 112.04 104.472 114.312 102.811C114.408 102.741 114.449 102.616 114.415 102.502C112.229 95.3115 108.93 88.0204 103.498 80.4934C103.45 80.4275 103.377 80.3858 103.299 80.3789C84.6419 78.544 68.436 83.4522 54.0695 93.3899C54.0215 93.4142 53.9871 93.4557 53.9665 93.5043ZM93.4691 138.593C93.4691 142.929 89.5567 146.502 84.7518 146.502C79.9469 146.502 76.0345 142.998 76.0345 138.593C76.0345 134.153 79.9813 130.615 84.7518 130.685C89.5567 130.685 93.4691 134.188 93.4691 138.593ZM93.4691 109.353C93.4691 113.688 89.5567 117.261 84.7518 117.261C79.9469 117.261 76.0345 113.758 76.0345 109.353C76.0345 104.913 79.9813 101.375 84.7518 101.444C89.5567 101.444 93.4691 104.913 93.4691 109.353Z" fill="#878A8C"/>
</g>
<path d="M187 362.926H172.781V358.346C172.781 357.089 173.068 355.96 173.641 354.957C174.207 353.954 175.011 353.173 176.053 352.613C177.088 352.047 178.25 351.76 179.539 351.754H180.193C181.495 351.754 182.664 352.031 183.699 352.584C184.728 353.131 185.535 353.906 186.121 354.908C186.701 355.904 186.993 357.018 187 358.248V362.926ZM175.428 359.498H184.363V358.307C184.363 357.324 184.015 356.568 183.318 356.041C182.615 355.514 181.574 355.25 180.193 355.25H179.578C178.204 355.25 177.169 355.514 176.473 356.041C175.776 356.568 175.428 357.337 175.428 358.346V359.498ZM187 345.644V349.062H172.781V345.644H187ZM183.221 335.227C182.719 335.227 182.329 335.406 182.049 335.764C181.769 336.116 181.479 336.737 181.18 337.629C180.88 338.521 180.59 339.25 180.311 339.817C179.406 341.659 178.162 342.58 176.58 342.58C175.792 342.58 175.099 342.353 174.5 341.897C173.895 341.435 173.426 340.784 173.094 339.944C172.755 339.104 172.586 338.16 172.586 337.112C172.586 336.09 172.768 335.175 173.133 334.368C173.497 333.554 174.018 332.922 174.695 332.473C175.366 332.024 176.134 331.799 177 331.799V335.217C176.421 335.217 175.971 335.396 175.652 335.754C175.333 336.106 175.174 336.584 175.174 337.19C175.174 337.802 175.311 338.287 175.584 338.645C175.851 338.996 176.193 339.172 176.609 339.172C176.974 339.172 177.306 338.977 177.605 338.586C177.898 338.196 178.204 337.509 178.523 336.526C178.836 335.543 179.174 334.735 179.539 334.104C180.424 332.567 181.645 331.799 183.201 331.799C184.445 331.799 185.421 332.268 186.131 333.205C186.84 334.143 187.195 335.429 187.195 337.063C187.195 338.215 186.99 339.26 186.58 340.198C186.163 341.129 185.597 341.832 184.881 342.307C184.158 342.776 183.328 343.01 182.391 343.01V339.573C183.152 339.573 183.715 339.377 184.08 338.987C184.438 338.59 184.617 337.948 184.617 337.063C184.617 336.496 184.497 336.051 184.256 335.725C184.008 335.393 183.663 335.227 183.221 335.227ZM182.186 317.838C183.175 317.883 184.051 318.15 184.812 318.638C185.568 319.127 186.154 319.813 186.57 320.699C186.987 321.578 187.195 322.584 187.195 323.716C187.195 325.585 186.587 327.056 185.369 328.13C184.152 329.205 182.433 329.742 180.213 329.742H179.51C178.117 329.742 176.899 329.501 175.857 329.019C174.809 328.531 174.002 327.831 173.436 326.92C172.863 326.008 172.576 324.953 172.576 323.755C172.576 322.03 173.032 320.643 173.943 319.595C174.848 318.547 176.098 317.951 177.693 317.808V321.226C176.827 321.252 176.206 321.47 175.828 321.88C175.451 322.291 175.262 322.916 175.262 323.755C175.262 324.608 175.581 325.233 176.219 325.63C176.857 326.028 177.876 326.236 179.275 326.255H180.281C181.798 326.255 182.882 326.067 183.533 325.689C184.184 325.305 184.51 324.647 184.51 323.716C184.51 322.929 184.324 322.326 183.953 321.91C183.582 321.493 182.993 321.272 182.186 321.246V317.838ZM180.184 303.475C181.57 303.475 182.798 303.733 183.865 304.247C184.933 304.761 185.757 305.494 186.336 306.444C186.909 307.388 187.195 308.466 187.195 309.677C187.195 310.888 186.919 311.962 186.365 312.899C185.805 313.837 185.008 314.569 183.973 315.096C182.938 315.617 181.749 315.891 180.408 315.917H179.607C178.214 315.917 176.987 315.663 175.926 315.155C174.858 314.641 174.035 313.908 173.455 312.958C172.876 312.001 172.586 310.914 172.586 309.696C172.586 308.492 172.872 307.417 173.445 306.473C174.018 305.529 174.835 304.797 175.896 304.276C176.951 303.749 178.162 303.482 179.529 303.475H180.184ZM179.588 306.962C178.175 306.962 177.104 307.199 176.375 307.675C175.639 308.143 175.271 308.817 175.271 309.696C175.271 311.415 176.561 312.323 179.139 312.421L180.184 312.43C181.577 312.43 182.648 312.199 183.396 311.737C184.145 311.275 184.52 310.588 184.52 309.677C184.52 308.811 184.152 308.143 183.416 307.675C182.68 307.206 181.622 306.968 180.242 306.962H179.588ZM181.98 295.725V297.58H187V301.008H172.781V295.412C172.781 293.726 173.156 292.408 173.904 291.457C174.653 290.507 175.711 290.031 177.078 290.031C178.068 290.031 178.888 290.233 179.539 290.637C180.19 291.034 180.717 291.659 181.121 292.512L186.854 289.543H187V293.215L181.98 295.725ZM179.334 297.58V295.412C179.334 294.761 179.165 294.273 178.826 293.947C178.481 293.615 178.003 293.449 177.391 293.449C176.779 293.449 176.3 293.615 175.955 293.947C175.604 294.279 175.428 294.768 175.428 295.412V297.58H179.334ZM187 287.261H172.781V282.681C172.781 281.424 173.068 280.295 173.641 279.292C174.207 278.29 175.011 277.508 176.053 276.948C177.088 276.382 178.25 276.096 179.539 276.089H180.193C181.495 276.089 182.664 276.366 183.699 276.919C184.728 277.466 185.535 278.241 186.121 279.243C186.701 280.239 186.993 281.353 187 282.583V287.261ZM175.428 283.833H184.363V282.642C184.363 281.659 184.015 280.904 183.318 280.376C182.615 279.849 181.574 279.585 180.193 279.585H179.578C178.204 279.585 177.169 279.849 176.473 280.376C175.776 280.904 175.428 281.672 175.428 282.681V283.833ZM187 267.951H172.781V262.843C172.781 261.014 173.117 259.624 173.787 258.673C174.458 257.716 175.431 257.238 176.707 257.238C177.443 257.238 178.071 257.407 178.592 257.746C179.113 258.084 179.497 258.582 179.744 259.24C179.939 258.498 180.304 257.928 180.838 257.531C181.372 257.134 182.023 256.935 182.791 256.935C184.184 256.935 185.232 257.378 185.936 258.263C186.632 259.142 186.987 260.448 187 262.179V267.951ZM180.955 264.523H184.363V262.277C184.363 261.658 184.223 261.183 183.943 260.851C183.657 260.519 183.257 260.353 182.742 260.353C181.557 260.353 180.962 260.942 180.955 262.121V264.523ZM178.709 264.523V262.736C178.702 261.987 178.566 261.453 178.299 261.134C178.032 260.815 177.638 260.656 177.117 260.656C176.518 260.656 176.089 260.828 175.828 261.173C175.561 261.518 175.428 262.075 175.428 262.843V264.523H178.709ZM180.184 242.3C181.57 242.3 182.798 242.557 183.865 243.071C184.933 243.585 185.757 244.318 186.336 245.268C186.909 246.212 187.195 247.29 187.195 248.501C187.195 249.712 186.919 250.786 186.365 251.723C185.805 252.661 185.008 253.393 183.973 253.921C182.937 254.442 181.749 254.715 180.408 254.741H179.607C178.214 254.741 176.987 254.487 175.926 253.979C174.858 253.465 174.035 252.733 173.455 251.782C172.876 250.825 172.586 249.738 172.586 248.52C172.586 247.316 172.872 246.242 173.445 245.298C174.018 244.354 174.835 243.621 175.896 243.1C176.951 242.573 178.162 242.306 179.529 242.3H180.184ZM179.588 245.786C178.175 245.786 177.104 246.024 176.375 246.499C175.639 246.968 175.271 247.641 175.271 248.52C175.271 250.239 176.561 251.147 179.139 251.245L180.184 251.255C181.577 251.255 182.648 251.024 183.396 250.561C184.145 250.099 184.52 249.412 184.52 248.501C184.52 247.635 184.152 246.968 183.416 246.499C182.68 246.03 181.622 245.792 180.242 245.786H179.588ZM175.428 229.51V233.777H187V237.205H175.428V241.395H172.781V229.51H175.428ZM187 222.26H172.781V217.68C172.781 216.424 173.068 215.294 173.641 214.291C174.207 213.289 175.011 212.508 176.053 211.948C177.088 211.381 178.25 211.095 179.539 211.088H180.193C181.495 211.088 182.664 211.365 183.699 211.918C184.728 212.465 185.535 213.24 186.121 214.243C186.701 215.239 186.993 216.352 187 217.582V222.26ZM175.428 218.832H184.363V217.641C184.363 216.658 184.015 215.903 183.318 215.375C182.615 214.848 181.574 214.584 180.193 214.584H179.578C178.204 214.584 177.169 214.848 176.473 215.375C175.776 215.903 175.428 216.671 175.428 217.68V218.832ZM180.975 199.812V205.203H184.363V198.836H187V208.63H172.781V198.816H175.428V205.203H178.426V199.812H180.975ZM183.133 191.221L172.781 188.389V184.561L187 189.346V193.096L172.781 197.843V194.044L183.133 191.221ZM180.975 173.998V179.389H184.363V173.021H187V182.816H172.781V173.002H175.428V179.389H178.426V173.998H180.975ZM184.363 167.497V161.53H187V170.925H172.781V167.497H184.363ZM180.184 147.969C181.57 147.969 182.798 148.226 183.865 148.741C184.933 149.255 185.757 149.987 186.336 150.938C186.909 151.882 187.195 152.959 187.195 154.17C187.195 155.381 186.919 156.455 186.365 157.393C185.805 158.33 185.008 159.063 183.973 159.59C182.937 160.111 181.749 160.385 180.408 160.411H179.607C178.214 160.411 176.987 160.157 175.926 159.649C174.858 159.135 174.035 158.402 173.455 157.452C172.876 156.495 172.586 155.407 172.586 154.19C172.586 152.985 172.872 151.911 173.445 150.967C174.018 150.023 174.835 149.291 175.896 148.77C176.951 148.243 178.162 147.976 179.529 147.969H180.184ZM179.588 151.455C178.175 151.455 177.104 151.693 176.375 152.168C175.639 152.637 175.271 153.311 175.271 154.19C175.271 155.909 176.561 156.817 179.139 156.914L180.184 156.924C181.577 156.924 182.648 156.693 183.396 156.231C184.145 155.769 184.52 155.082 184.52 154.17C184.52 153.304 184.152 152.637 183.416 152.168C182.68 151.7 181.622 151.462 180.242 151.455H179.588ZM182.176 142.074H187V145.502H172.781V139.828C172.781 138.74 172.983 137.78 173.387 136.947C173.784 136.107 174.354 135.459 175.096 135.004C175.831 134.541 176.668 134.31 177.605 134.31C178.992 134.31 180.102 134.808 180.936 135.804C181.762 136.794 182.176 138.155 182.176 139.886V142.074ZM179.529 142.074V139.828C179.529 139.164 179.363 138.659 179.031 138.314C178.699 137.962 178.23 137.787 177.625 137.787C176.961 137.787 176.43 137.966 176.033 138.324C175.636 138.682 175.434 139.17 175.428 139.789V142.074H179.529ZM172.781 127.272L182.674 124.098L172.781 120.934V116.423H187V119.86H183.68L176.883 119.528L187 122.966V125.231L176.873 128.679L183.68 128.346H187V131.774H172.781V127.272ZM180.975 104.717V110.107H184.363V103.74H187V113.535H172.781V103.721H175.428V110.107H178.426V104.717H180.975ZM187 89.7687V93.1769L178.152 98.216H187V101.644H172.781V98.216L181.629 93.1867H172.781V89.7687H187ZM175.428 76.0316V80.2992H187V83.727H175.428V87.9164H172.781V76.0316H175.428Z" fill="#878A8C"/>
<rect x="243" y="364" width="36" height="1.82328" transform="rotate(180 243 364)" fill="#878A8C"/>
<rect x="243" y="96.5862" width="36" height="3.03879" transform="rotate(180 243 96.5862)" fill="#878A8C"/>
<rect x="243" y="335.131" width="36" height="6.68534" transform="rotate(180 243 335.131)" fill="#878A8C"/>
<rect x="243" y="350.933" width="36" height="4.55819" transform="rotate(180 243 350.933)" fill="#878A8C"/>
<rect x="243" y="87.166" width="36" height="5.16595" transform="rotate(180 243 87.166)" fill="#878A8C"/>
<rect x="243" y="116.034" width="36" height="2.43103" transform="rotate(180 243 116.034)" fill="#878A8C"/>
<rect x="243" y="108.438" width="36" height="3.95043" transform="rotate(180 243 108.438)" fill="#878A8C"/>
<rect x="243" y="269.189" width="36" height="1.21552" transform="rotate(180 243 269.189)" fill="#878A8C"/>
<rect x="243" y="169.821" width="36" height="3.03879" transform="rotate(180 243 169.821)" fill="#878A8C"/>
<rect x="243" y="246.399" width="36" height="5.46983" transform="rotate(180 243 246.399)" fill="#878A8C"/>
<rect x="243" y="280.433" width="36" height="4.25431" transform="rotate(180 243 280.433)" fill="#878A8C"/>
<rect x="243" y="158.578" width="36" height="6.07759" transform="rotate(180 243 158.578)" fill="#878A8C"/>
<rect x="243" y="193.22" width="36" height="2.12715" transform="rotate(180 243 193.22)" fill="#878A8C"/>
<rect x="243" y="184.104" width="36" height="5.16595" transform="rotate(180 243 184.104)" fill="#878A8C"/>
</g>
<defs>
<clipPath id="clip0_12_3">
<rect width="438" height="287" fill="white" transform="translate(0 438) rotate(-90)"/>
</clipPath>
<clipPath id="clip1_12_3">
<rect width="88" height="67" fill="white" transform="translate(48 168) rotate(-90)"/>
</clipPath>
</defs>
</svg>
