<svg width="195" height="4680" viewBox="0 0 195 4680" fill="none" xmlns="http://www.w3.org/2000/svg">
<path d="M10.2969 54.9844H12.2969V52.9844H10.2969V54.9844ZM35.4922 171.391L36.9821 170.056L36.981 170.055L35.4922 171.391ZM63.4219 191.508L64.2362 189.681L64.227 189.677L64.2177 189.673L63.4219 191.508ZM136.078 191.508L135.306 189.663L135.297 189.667L135.288 189.671L136.078 191.508ZM164.984 171.391L166.452 172.749L166.463 172.738L166.473 172.726L164.984 171.391ZM183.539 139.359L181.66 138.674L181.657 138.683L181.654 138.692L183.539 139.359ZM190.375 0.101562H192.375V-1.89844H190.375V0.101562ZM-94 0.101562V-1.89844H-96V0.101562H-94ZM-94 54.9844H-96V56.9844H-94V54.9844ZM54.8281 54.9844V52.9844L52.8281 52.9844V54.9844L54.8281 54.9844ZM145.844 54.9844H147.844V52.9844H145.844V54.9844ZM131.977 132.133L133.297 133.635L133.309 133.624L133.322 133.613L131.977 132.133ZM116.937 140.531L116.331 138.625L116.312 138.632L116.292 138.638L116.937 140.531ZM81.7812 140.531L82.4684 138.653L82.4552 138.648L82.442 138.644L81.7812 140.531ZM67.9141 132.133L66.5232 133.57L66.5354 133.582L66.5478 133.593L67.9141 132.133ZM8.29688 54.9844V97.3672H12.2969V54.9844H8.29688ZM8.29688 97.3672C8.29688 113.052 10.5376 127.28 15.0522 140.027L18.8228 138.692C14.4832 126.439 12.2969 112.672 12.2969 97.3672H8.29688ZM15.0522 140.027C19.5566 152.745 25.8672 163.656 34.0034 172.726L36.981 170.055C29.2318 161.417 23.1726 150.974 18.8228 138.692L15.0522 140.027ZM34.0023 172.725C42.0085 181.665 51.5556 188.541 62.626 193.343L64.2177 189.673C53.6736 185.1 44.6009 178.564 36.9821 170.056L34.0023 172.725ZM62.6075 193.335C73.6908 198.275 85.7547 200.734 98.7734 200.734V196.734C86.2713 196.734 74.7676 194.376 64.2362 189.681L62.6075 193.335ZM98.7734 200.734C112.684 200.734 125.392 198.282 136.869 193.345L135.288 189.671C124.368 194.369 112.207 196.734 98.7734 196.734V200.734ZM136.85 193.353C148.307 188.557 158.181 181.688 166.452 172.749L163.516 170.032C155.642 178.542 146.246 185.084 135.306 189.663L136.85 193.353ZM166.473 172.726C174.609 163.656 180.92 152.745 185.424 140.027L181.654 138.692C177.304 150.974 171.245 161.417 163.496 170.055L166.473 172.726ZM185.418 140.044C190.067 127.292 192.375 113.058 192.375 97.3672H188.375C188.375 112.666 186.125 126.427 181.66 138.674L185.418 140.044ZM192.375 97.3672L192.375 0.101562H188.375L188.375 97.3672H192.375ZM190.375 -1.89844L-94 -1.89844V2.10156L190.375 2.10156V-1.89844ZM-96 0.101562V54.9844H-92V0.101562H-96ZM-94 56.9844L10.2969 56.9844V52.9844L-94 52.9844V56.9844ZM54.8281 56.9844L145.844 56.9844V52.9844L54.8281 52.9844V56.9844ZM143.844 54.9844V97.3672H147.844V54.9844H143.844ZM143.844 97.3672C143.844 104.973 142.639 111.463 140.297 116.887L143.969 118.473C146.575 112.438 147.844 105.386 147.844 97.3672H143.844ZM140.297 116.887C137.927 122.374 134.702 126.952 130.631 130.653L133.322 133.613C137.845 129.501 141.391 124.443 143.969 118.473L140.297 116.887ZM130.656 130.63C126.578 134.215 121.811 136.882 116.331 138.625L117.544 142.437C123.523 140.535 128.782 137.603 133.297 133.635L130.656 130.63ZM116.292 138.638C110.79 140.514 104.825 141.461 98.3828 141.461V145.461C105.222 145.461 111.627 144.455 117.583 142.424L116.292 138.638ZM98.3828 141.461C92.8862 141.461 87.5851 140.525 82.4684 138.653L81.0941 142.41C86.6545 144.444 92.4211 145.461 98.3828 145.461V141.461ZM82.442 138.644C77.4964 136.913 73.1142 134.259 69.2804 130.672L66.5478 133.593C70.7868 137.559 75.6494 140.504 81.1205 142.419L82.442 138.644ZM69.3049 130.696C65.4867 127.001 62.4446 122.422 60.1949 116.922L56.4926 118.437C58.9304 124.396 62.2685 129.453 66.5232 133.57L69.3049 130.696ZM60.1949 116.922C57.9715 111.488 56.8281 104.985 56.8281 97.3672L52.8281 97.3672C52.8281 105.374 54.0285 112.413 56.4926 118.437L60.1949 116.922ZM56.8281 97.3672V54.9844L52.8281 54.9844V97.3672L56.8281 97.3672ZM72.0156 307.461H74.0156V305.461H72.0156V307.461ZM29.8281 307.461V305.461H27.8281V307.461H29.8281ZM27.2891 356.875L25.3676 356.32L25.3644 356.331L27.2891 356.875ZM19.4766 372.305L21.0052 373.594L21.0149 373.583L21.0245 373.571L19.4766 372.305ZM-30.3281 382.266L-29.5938 380.405L-29.6152 380.397L-29.6367 380.389L-30.3281 382.266ZM-42.8281 374.062L-41.3625 372.702L-41.3877 372.674L-41.4139 372.648L-42.8281 374.062ZM-51.6172 323.867L-53.4898 323.165L-53.4976 323.186L-53.5049 323.206L-51.6172 323.867ZM-43.6094 310.391L-42.1202 311.726L-42.0961 311.699L-42.0729 311.671L-43.6094 310.391ZM-31.8906 301.406L-32.7029 299.579L-32.7126 299.583L-32.7221 299.587L-31.8906 301.406ZM-16.6563 298.281V300.281H-14.6563V298.281H-16.6563ZM-16.6563 243.984H-14.6563V241.984H-16.6563V243.984ZM-52.5938 251.992L-53.5243 250.222L-53.5331 250.227L-53.542 250.231L-52.5938 251.992ZM-77.7891 273.672L-76.1918 274.876L-76.1862 274.868L-76.1807 274.861L-77.7891 273.672ZM-93.0234 304.336L-94.9415 303.769L-94.9453 303.782L-94.9489 303.795L-93.0234 304.336ZM-92.4375 379.141L-94.3526 379.717L-94.3486 379.73L-92.4375 379.141ZM-76.0313 410.781L-74.465 409.537L-74.4706 409.53L-74.4762 409.523L-76.0313 410.781ZM25.9219 428.164L27.0225 429.834L27.0314 429.828L27.0402 429.822L25.9219 428.164ZM40.9609 413.711L39.3784 412.488L39.3717 412.497L39.3652 412.505L40.9609 413.711ZM51.8984 393.203L53.7009 392.337L51.6348 388.039L50.0171 392.525L51.8984 393.203ZM63.4219 411.172L61.898 412.467L61.9073 412.478L61.9167 412.489L63.4219 411.172ZM95.0625 432.266L94.4684 434.175L94.4802 434.179L95.0625 432.266ZM148.187 427.969L147.369 426.144L147.355 426.15L147.34 426.157L148.187 427.969ZM173.773 408.633L175.314 409.908L175.32 409.901L175.326 409.894L173.773 408.633ZM189.008 378.555L187.092 377.98L187.089 377.99L187.086 378L189.008 378.555ZM188.617 303.359L190.515 302.727L190.512 302.72L188.617 303.359ZM172.797 274.062L174.349 272.801L174.343 272.794L174.337 272.787L172.797 274.062ZM148.187 254.336L149.092 252.552L149.082 252.547L149.072 252.542L148.187 254.336ZM116.547 247.305V245.305H114.547V247.305H116.547ZM116.547 301.602H114.547V303.602H116.547V301.602ZM141.352 313.32L142.902 312.057L142.897 312.051L141.352 313.32ZM147.992 325.625L149.895 325.008L149.892 325L149.89 324.993L147.992 325.625ZM147.602 358.437L145.725 357.746L145.722 357.754L145.719 357.762L147.602 358.437ZM139.984 370.937L141.371 372.379L141.385 372.366L141.399 372.352L139.984 370.937ZM127.875 378.164L127.243 376.267L127.21 376.277L127.179 376.289L127.875 378.164ZM96.625 378.164L97.2724 376.272L97.2572 376.267L97.242 376.262L96.625 378.164ZM84.3203 370.937L85.7065 369.496L85.6828 369.473L85.6582 369.451L84.3203 370.937ZM75.1406 357.07L73.2662 357.768L73.2705 357.779L73.275 357.791L75.1406 357.07ZM72.0156 305.461H29.8281V309.461H72.0156V305.461ZM27.8281 307.461V336.953H31.8281V307.461H27.8281ZM27.8281 336.953C27.8281 344.226 26.9984 350.675 25.3676 356.32L29.2105 357.43C30.9652 351.356 31.8281 344.524 31.8281 336.953H27.8281ZM25.3644 356.331C23.7373 362.089 21.2505 366.978 17.9286 371.038L21.0245 373.571C24.7338 369.038 27.4554 363.641 29.2137 357.419L25.3644 356.331ZM17.948 371.015C14.659 374.913 10.4423 377.919 5.2496 380.021L6.7504 383.729C12.4952 381.404 17.2629 378.03 21.0052 373.594L17.948 371.015ZM5.2496 380.021C0.0793762 382.114 -6.22751 383.195 -13.7266 383.195V387.195C-5.86102 387.195 0.983124 386.063 6.7504 383.729L5.2496 380.021ZM-13.7266 383.195C-19.6324 383.195 -24.9121 382.253 -29.5938 380.405L-31.0625 384.126C-25.8483 386.184 -20.0603 387.195 -13.7266 387.195V383.195ZM-29.6367 380.389C-34.3077 378.668 -38.2038 376.103 -41.3625 372.702L-44.2937 375.423C-40.6816 379.313 -36.2443 382.217 -31.0195 384.142L-29.6367 380.389ZM-41.4139 372.648C-44.9545 369.108 -47.6685 364.688 -49.5335 359.341L-53.3103 360.659C-51.269 366.51 -48.2538 371.465 -44.2423 375.477L-41.4139 372.648ZM-49.5335 359.341C-51.4005 353.989 -52.3516 347.902 -52.3516 341.055H-56.3516C-56.3516 348.27 -55.3495 354.813 -53.3103 360.659L-49.5335 359.341ZM-52.3516 341.055C-52.3516 335 -51.4689 329.498 -49.7295 324.528L-53.5049 323.206C-55.4113 328.653 -56.3516 334.609 -56.3516 341.055H-52.3516ZM-49.7445 324.569C-47.8703 319.571 -45.3242 315.299 -42.1202 311.726L-45.0985 309.056C-48.6654 313.034 -51.4578 317.746 -53.4898 323.165L-49.7445 324.569ZM-42.0729 311.671C-39.0065 307.991 -35.3399 305.182 -31.0591 303.225L-32.7221 299.587C-37.5559 301.797 -41.7018 304.977 -45.1458 309.11L-42.0729 311.671ZM-31.0783 303.234C-26.6632 301.272 -21.864 300.281 -16.6563 300.281V296.281C-22.386 296.281 -27.743 297.374 -32.7029 299.579L-31.0783 303.234ZM-14.6563 298.281V243.984H-18.6563V298.281H-14.6563ZM-16.6563 241.984C-30.7173 241.984 -43.0284 244.705 -53.5243 250.222L-51.6632 253.763C-41.8466 248.603 -30.1994 245.984 -16.6563 245.984V241.984ZM-53.542 250.231C-63.949 255.835 -72.5758 263.254 -79.3974 272.483L-76.1807 274.861C-69.721 266.121 -61.551 259.087 -51.6455 253.753L-53.542 250.231ZM-79.3863 272.468C-86.3101 281.656 -91.4924 292.095 -94.9415 303.769L-91.1054 304.903C-87.7836 293.66 -82.8097 283.657 -76.1918 274.876L-79.3863 272.468ZM-94.9489 303.795C-98.2539 315.561 -99.9063 327.592 -99.9063 339.883H-95.9063C-95.9063 327.955 -94.3034 316.288 -91.098 304.877L-94.9489 303.795ZM-99.9063 339.883C-99.9063 354.119 -98.0606 367.401 -94.3526 379.717L-90.5224 378.564C-94.106 366.661 -95.9063 353.772 -95.9063 339.883H-99.9063ZM-94.3486 379.73C-90.5068 392.183 -84.9266 402.964 -77.5863 412.039L-74.4762 409.523C-81.4588 400.891 -86.8161 390.577 -90.5264 378.551L-94.3486 379.73ZM-77.5975 412.025C-70.3758 421.119 -61.4139 428.272 -50.7358 433.477L-48.983 429.882C-59.1381 424.931 -67.6242 418.152 -74.465 409.537L-77.5975 412.025ZM-50.7358 433.477C-40.0088 438.707 -27.853 441.297 -14.3125 441.297V437.297C-27.3345 437.297 -38.8766 434.809 -48.983 429.882L-50.7358 433.477ZM-14.3125 441.297C-6.59827 441.297 0.738953 440.366 7.69183 438.494L6.65192 434.631C0.0631409 436.405 -6.92255 437.297 -14.3125 437.297V441.297ZM7.69183 438.494C14.6643 436.617 21.1111 433.73 27.0225 429.834L24.8213 426.494C19.2744 430.15 13.2211 432.863 6.65192 434.631L7.69183 438.494ZM27.0402 429.822C32.8375 425.912 38.0081 420.937 42.5567 414.917L39.3652 412.505C35.0596 418.204 30.2042 422.864 24.8036 426.506L27.0402 429.822ZM42.5435 414.934C47.1171 409.015 50.856 401.988 53.7798 393.882L50.0171 392.525C47.2117 400.303 43.659 406.948 39.3784 412.488L42.5435 414.934ZM50.0959 394.07C53.418 400.98 57.3497 407.116 61.898 412.467L64.9457 409.877C60.6398 404.811 56.8893 398.968 53.7009 392.337L50.0959 394.07ZM61.9167 412.489C66.5828 417.822 71.6649 422.306 77.1656 425.928L79.3656 422.587C74.1893 419.179 69.3755 414.939 64.927 409.855L61.9167 412.489ZM77.1656 425.928C82.6542 429.543 88.4227 432.294 94.4684 434.175L95.6566 430.356C89.9836 428.591 84.5541 426.004 79.3656 422.587L77.1656 425.928ZM94.4802 434.179C100.654 436.058 106.905 437 113.227 437V433C107.309 433 101.45 432.119 95.6448 430.352L94.4802 434.179ZM113.227 437C126.743 437 138.696 434.614 149.035 429.781L147.34 426.157C137.627 430.698 126.273 433 113.227 433V437ZM149.006 429.793C159.434 425.115 168.212 418.485 175.314 409.908L172.233 407.357C165.533 415.448 157.254 421.708 147.369 426.144L149.006 429.793ZM175.326 409.894C182.287 401.326 187.479 391.051 190.929 379.11L187.086 378C183.765 389.496 178.801 399.273 172.221 407.372L175.326 409.894ZM190.923 379.129C194.503 367.199 196.281 354.112 196.281 339.883H192.281C192.281 353.779 190.544 366.473 187.092 377.98L190.923 379.129ZM196.281 339.883C196.281 326.666 194.364 314.277 190.515 302.727L186.72 303.992C190.422 315.098 192.281 327.058 192.281 339.883H196.281ZM190.512 302.72C186.668 291.319 181.285 281.338 174.349 272.801L171.245 275.324C177.851 283.454 183.015 293.004 186.722 303.998L190.512 302.72ZM174.337 272.787C167.264 264.246 158.845 257.496 149.092 252.552L147.283 256.12C156.54 260.812 164.528 267.213 171.257 275.338L174.337 272.787ZM149.072 252.542C139.267 247.707 128.413 245.305 116.547 245.305V249.305C127.858 249.305 138.098 251.59 147.303 256.13L149.072 252.542ZM114.547 247.305V301.602H118.547V247.305H114.547ZM116.547 303.602C121.482 303.602 125.857 304.587 129.715 306.515L131.504 302.938C127.028 300.7 122.029 299.602 116.547 299.602V303.602ZM129.715 306.515C133.627 308.472 136.987 311.158 139.806 314.59L142.897 312.051C139.726 308.191 135.925 305.148 131.504 302.938L129.715 306.515ZM139.801 314.584C142.5 317.896 144.602 321.779 146.095 326.257L149.89 324.993C148.257 320.096 145.933 315.776 142.902 312.057L139.801 314.584ZM146.09 326.242C147.583 330.845 148.336 335.779 148.336 341.055H152.336C152.336 335.393 151.527 330.04 149.895 325.008L146.09 326.242ZM148.336 341.055C148.336 347.518 147.448 353.069 145.725 357.746L149.478 359.129C151.401 353.911 152.336 347.873 152.336 341.055H148.336ZM145.719 357.762C143.979 362.61 141.584 366.51 138.57 369.523L141.399 372.352C144.895 368.855 147.578 364.422 149.484 359.113L145.719 357.762ZM138.598 369.496C135.438 372.534 131.663 374.793 127.243 376.267L128.507 380.061C133.462 378.41 137.76 375.851 141.371 372.379L138.598 369.496ZM127.179 376.289C122.875 377.888 118.037 378.703 112.641 378.703V382.703C118.442 382.703 123.76 381.826 128.571 380.039L127.179 376.289ZM112.641 378.703C107.111 378.703 101.993 377.887 97.2724 376.272L95.9776 380.056C101.153 381.827 106.712 382.703 112.641 382.703V378.703ZM97.242 376.262C92.6893 374.785 88.8569 372.525 85.7065 369.496L82.9341 372.379C86.5545 375.86 90.9253 378.418 96.008 380.066L97.242 376.262ZM85.6582 369.451C82.022 366.178 79.1256 361.835 77.0062 356.35L73.275 357.791C75.5828 363.764 78.8061 368.665 82.9824 372.424L85.6582 369.451ZM77.0151 356.373C75.0359 351.054 74.0156 344.597 74.0156 336.953H70.0156C70.0156 344.934 71.0786 351.889 73.2662 357.768L77.0151 356.373ZM74.0156 336.953V307.461H70.0156V336.953H74.0156ZM-94 692.555H-96V694.555H-94V692.555ZM190.375 692.555V694.555H192.375V692.555H190.375ZM190.375 637.477H192.375V635.479L190.377 635.477L190.375 637.477ZM7.75781 637.281L6.96783 635.444L7.75568 639.281L7.75781 637.281ZM190.375 558.766L191.165 560.603L192.375 560.083V558.766H190.375ZM190.375 503.492H192.375V501.492H190.375V503.492ZM-94 503.492V501.492H-96V503.492H-94ZM-94 558.766H-96V560.766H-94V558.766ZM89.3984 558.766L90.1905 560.602L89.3984 556.766V558.766ZM-94 637.867L-94.7921 636.031L-96 636.552V637.867H-94ZM-94 694.555L190.375 694.555V690.555L-94 690.555V694.555ZM192.375 692.555L192.375 637.477H188.375L188.375 692.555H192.375ZM190.377 635.477L7.75995 635.281L7.75568 639.281L190.373 639.477L190.377 635.477ZM8.54779 639.119L191.165 560.603L189.585 556.928L6.96783 635.444L8.54779 639.119ZM192.375 558.766L192.375 503.492H188.375L188.375 558.766H192.375ZM190.375 501.492L-94 501.492V505.492L190.375 505.492V501.492ZM-96 503.492V558.766H-92V503.492H-96ZM-94 560.766L89.3984 560.766V556.766L-94 556.766V560.766ZM88.6064 556.929L-94.7921 636.031L-93.2079 639.704L90.1905 560.602L88.6064 556.929ZM-96 637.867V692.555H-92V637.867H-96ZM145.648 968.273H143.648V970.273H145.648V968.273ZM190.375 968.273V970.273H192.375V968.273H190.375ZM190.375 738.977H192.375V736.977H190.375V738.977ZM145.648 738.977V736.977H143.648V738.977H145.648ZM145.648 825.5V827.5H147.648V825.5H145.648ZM-94 825.5V823.5H-96V825.5H-94ZM-94 880.578H-96V882.578H-94V880.578ZM145.648 880.578H147.648V878.578H145.648V880.578ZM145.648 970.273H190.375V966.273H145.648V970.273ZM192.375 968.273L192.375 738.977H188.375L188.375 968.273H192.375ZM190.375 736.977H145.648V740.977H190.375V736.977ZM143.648 738.977L143.648 825.5H147.648L147.648 738.977H143.648ZM145.648 823.5L-94 823.5V827.5L145.648 827.5V823.5ZM-96 825.5V880.578H-92V825.5H-96ZM-94 882.578L145.648 882.578V878.578L-94 878.578V882.578ZM143.648 880.578V968.273H147.648V880.578H143.648ZM30.6094 1188.52H28.6094V1190.52H30.6094V1188.52ZM73.9687 1188.52V1190.52H75.9687V1188.52H73.9687ZM73.9687 1071.73V1069.73H71.9687V1071.73H73.9687ZM145.648 1071.73H147.648V1069.73H145.648V1071.73ZM145.648 1207.66H143.648V1209.66H145.648V1207.66ZM190.375 1207.66V1209.66H192.375V1207.66H190.375ZM190.375 1016.65H192.375V1014.65H190.375V1016.65ZM-94 1016.65V1014.65H-96V1016.65H-94ZM-94 1208.25H-96V1210.25H-94V1208.25ZM-49.6641 1208.25V1210.25H-47.6641V1208.25H-49.6641ZM-49.6641 1071.73V1069.73H-51.6641V1071.73H-49.6641ZM30.6094 1071.73H32.6094V1069.73H30.6094V1071.73ZM30.6094 1190.52H73.9687V1186.52H30.6094V1190.52ZM75.9687 1188.52L75.9687 1071.73H71.9687L71.9687 1188.52H75.9687ZM73.9687 1073.73H145.648V1069.73H73.9687V1073.73ZM143.648 1071.73L143.648 1207.66H147.648L147.648 1071.73H143.648ZM145.648 1209.66H190.375V1205.66H145.648V1209.66ZM192.375 1207.66L192.375 1016.65H188.375L188.375 1207.66H192.375ZM190.375 1014.65H-94V1018.65H190.375V1014.65ZM-96 1016.65L-96 1208.25H-92L-92 1016.65H-96ZM-94 1210.25H-49.6641V1206.25H-94V1210.25ZM-47.6641 1208.25V1071.73H-51.6641V1208.25H-47.6641ZM-49.6641 1073.73H30.6094V1069.73H-49.6641V1073.73ZM28.6094 1071.73V1188.52H32.6094V1071.73H28.6094ZM-33.8438 1412.29L-34.7382 1414.08L-34.7273 1414.08L-34.7163 1414.09L-33.8438 1412.29ZM-44.5859 1403.3L-42.9987 1402.09L-44.5859 1403.3ZM-51.6172 1388.85L-49.6991 1388.28L-49.7028 1388.27L-51.6172 1388.85ZM-51.4219 1346.86L-53.3531 1346.34L-53.3556 1346.35L-51.4219 1346.86ZM-42.8281 1329.48L-41.2746 1330.74L-41.2664 1330.73L-41.2584 1330.72L-42.8281 1329.48ZM-5.71875 1313.46L-5.65817 1315.46L-3.71875 1315.4V1313.46H-5.71875ZM-5.71875 1259.55H-3.71875V1257.55H-5.71875V1259.55ZM-44.1953 1267.95L-45.1067 1266.17L-45.115 1266.18L-45.1233 1266.18L-44.1953 1267.95ZM-72.7109 1291.2L-74.2524 1289.92L-74.2636 1289.93L-74.2746 1289.95L-72.7109 1291.2ZM-91.4609 1327.33L-93.3705 1326.73L-93.3739 1326.74L-93.3771 1326.76L-91.4609 1327.33ZM-92.6328 1409.55L-94.5604 1410.09L-94.5578 1410.1L-94.5551 1410.11L-92.6328 1409.55ZM-77.2031 1441.2L-75.6031 1440L-75.6087 1439.99L-75.6144 1439.98L-77.2031 1441.2ZM-52.7891 1461.9L-51.8663 1460.12L-51.8755 1460.12L-52.7891 1461.9ZM47.9922 1432.8L49.5966 1433.99L49.6204 1433.96L49.6428 1433.93L47.9922 1432.8ZM71.4297 1380.45L73.3556 1380.99L73.3578 1380.98L73.3598 1380.98L71.4297 1380.45ZM79.4375 1355.84L77.5805 1355.1L77.576 1355.11L79.4375 1355.84ZM89.0078 1337.48L90.6522 1338.62L90.6622 1338.61L90.6719 1338.59L89.0078 1337.48ZM100.531 1325.77L99.4946 1324.06L99.476 1324.07L99.4575 1324.08L100.531 1325.77ZM129.047 1324.79L129.898 1322.98L129.887 1322.97L129.874 1322.97L129.047 1324.79ZM140.57 1333.77L142.132 1332.52L142.12 1332.51L142.107 1332.49L140.57 1333.77ZM147.797 1348.03L145.882 1348.61L145.887 1348.62L145.891 1348.64L147.797 1348.03ZM147.211 1388.27L145.34 1387.56L145.331 1387.58L145.322 1387.61L147.211 1388.27ZM138.422 1403.3L139.836 1404.72L139.86 1404.7L139.882 1404.67L138.422 1403.3ZM124.555 1412.09L123.868 1410.22L123.847 1410.22L123.828 1410.23L124.555 1412.09ZM106.977 1415.61L106.895 1413.61L104.977 1413.69V1415.61H106.977ZM106.977 1469.12H104.977V1471.12H106.977V1469.12ZM169.867 1441L171.367 1442.32L171.372 1442.32L171.378 1442.31L169.867 1441ZM187.836 1409.16L185.949 1408.5L185.947 1408.51L187.836 1409.16ZM188.617 1328.7L186.7 1329.27L186.703 1329.28L186.706 1329.28L188.617 1328.7ZM86.2734 1273.81L85.4889 1271.97L85.4775 1271.98L85.4662 1271.98L86.2734 1273.81ZM62.0547 1291L60.6159 1289.61L62.0547 1291ZM41.9375 1320.1L40.1605 1319.18L40.1565 1319.19L41.9375 1320.1ZM26.3125 1361.7L24.383 1361.18L24.3813 1361.18L26.3125 1361.7ZM17.3281 1387.09L15.5256 1386.23L15.5157 1386.25L15.5062 1386.27L17.3281 1387.09ZM6.97656 1403.89L8.43564 1405.26L8.45764 1405.23L8.47888 1405.21L6.97656 1403.89ZM-5.52344 1412.68L-6.2377 1410.81L-6.26144 1410.82L-6.28494 1410.83L-5.52344 1412.68ZM-19.7813 1413.41C-24.5767 1413.41 -28.9634 1412.43 -32.9712 1410.49L-34.7163 1414.09C-30.1303 1416.31 -25.142 1417.41 -19.7813 1417.41V1413.41ZM-32.9493 1410.5C-36.8293 1408.56 -40.1778 1405.77 -42.9987 1402.09L-46.1732 1404.52C-43.0045 1408.65 -39.1915 1411.85 -34.7382 1414.08L-32.9493 1410.5ZM-42.9987 1402.09C-45.8162 1398.41 -48.0615 1393.83 -49.6992 1388.28L-53.5352 1389.42C-51.7874 1395.33 -49.3452 1400.38 -46.1732 1404.52L-42.9987 1402.09ZM-49.7028 1388.27C-51.3268 1382.9 -52.1563 1376.66 -52.1563 1369.52H-56.1563C-56.1563 1376.96 -55.293 1383.6 -53.5316 1389.43L-49.7028 1388.27ZM-52.1563 1369.52C-52.1563 1361.46 -51.2611 1354.08 -49.4882 1347.37L-53.3556 1346.35C-55.2285 1353.44 -56.1563 1361.17 -56.1563 1369.52H-52.1563ZM-49.4906 1347.38C-47.731 1340.84 -44.9829 1335.31 -41.2746 1330.74L-44.3816 1328.22C-48.4858 1333.28 -51.4669 1339.33 -53.3531 1346.34L-49.4906 1347.38ZM-41.2584 1330.72C-37.565 1326.04 -32.8172 1322.39 -26.9732 1319.78L-28.6049 1316.13C-35.0005 1318.98 -40.2788 1323.02 -44.3979 1328.24L-41.2584 1330.72ZM-26.9732 1319.78C-21.1484 1317.18 -14.0618 1315.71 -5.65817 1315.46L-5.77933 1311.46C-14.5632 1311.73 -22.1902 1313.26 -28.6049 1316.13L-26.9732 1319.78ZM-3.71875 1313.46V1259.55H-7.71875V1313.46H-3.71875ZM-5.71875 1257.55C-20.6871 1257.55 -33.8365 1260.4 -45.1067 1266.17L-43.284 1269.73C-32.6791 1264.3 -20.1775 1261.55 -5.71875 1261.55V1257.55ZM-45.1233 1266.18C-56.3026 1272.04 -66.0146 1279.96 -74.2524 1289.92L-71.1695 1292.47C-63.2614 1282.9 -53.963 1275.33 -43.2673 1269.72L-45.1233 1266.18ZM-74.2746 1289.95C-82.6471 1300.45 -89.0071 1312.72 -93.3705 1326.73L-89.5513 1327.92C-85.321 1314.33 -79.181 1302.52 -71.1473 1292.44L-74.2746 1289.95ZM-93.3771 1326.76C-97.598 1340.87 -99.7109 1355.12 -99.7109 1369.52H-95.7109C-95.7109 1355.52 -93.6572 1341.65 -89.5448 1327.9L-93.3771 1326.76ZM-99.7109 1369.52C-99.7109 1384.12 -98 1397.65 -94.5604 1410.09L-90.7052 1409.02C-94.0365 1396.98 -95.7109 1383.81 -95.7109 1369.52H-99.7109ZM-94.5551 1410.11C-90.9803 1422.55 -85.7342 1433.33 -78.7918 1442.41L-75.6144 1439.98C-82.2137 1431.35 -87.2541 1421.04 -90.7105 1409L-94.5551 1410.11ZM-78.8031 1442.4C-71.9846 1451.49 -63.6138 1458.59 -53.7027 1463.68L-51.8755 1460.12C-61.2351 1455.31 -69.1404 1448.61 -75.6031 1440L-78.8031 1442.4ZM-53.7118 1463.67C-43.6245 1468.92 -32.1679 1471.52 -19.3906 1471.52V1467.52C-31.6134 1467.52 -42.4223 1465.03 -51.8664 1460.12L-53.7118 1463.67ZM-19.3906 1471.52C-4.61954 1471.52 8.505 1468.12 19.9196 1461.27L17.8616 1457.84C7.14084 1464.27 -5.25546 1467.52 -19.3906 1467.52V1471.52ZM19.9196 1461.27C31.229 1454.48 41.1202 1445.38 49.5966 1433.99L46.3877 1431.6C38.1975 1442.61 28.6877 1451.34 17.8616 1457.84L19.9196 1461.27ZM49.6428 1433.93C54.7955 1426.4 59.3464 1418.15 63.2986 1409.19L59.6389 1407.58C55.7786 1416.33 51.3451 1424.35 46.3416 1431.67L49.6428 1433.93ZM63.2986 1409.19C67.245 1400.24 70.5968 1390.85 73.3556 1380.99L69.5038 1379.91C66.7938 1389.59 63.505 1398.81 59.6389 1407.58L63.2986 1409.19ZM73.3598 1380.98C75.8185 1371.92 78.4658 1363.79 81.299 1356.58L77.576 1355.11C74.68 1362.48 71.9888 1370.76 69.4995 1379.93L73.3598 1380.98ZM81.2944 1356.59C84.1164 1349.53 87.2401 1343.55 90.6522 1338.62L87.3634 1336.35C83.7443 1341.57 80.4878 1347.83 77.5806 1355.1L81.2944 1356.59ZM90.6719 1338.59C93.933 1333.7 97.5848 1330.01 101.605 1327.45L99.4575 1324.08C94.884 1326.99 90.8535 1331.11 87.3437 1336.38L90.6719 1338.59ZM101.568 1327.48C105.532 1325.07 109.988 1323.86 114.984 1323.86V1319.86C109.304 1319.86 104.124 1321.25 99.4946 1324.06L101.568 1327.48ZM114.984 1323.86C119.799 1323.86 124.202 1324.78 128.219 1326.61L129.874 1322.97C125.298 1320.89 120.326 1319.86 114.984 1319.86V1323.86ZM128.195 1326.6C132.348 1328.55 135.958 1331.36 139.034 1335.05L142.107 1332.49C138.672 1328.37 134.6 1325.19 129.898 1322.98L128.195 1326.6ZM139.009 1335.02C141.95 1338.7 144.251 1343.21 145.882 1348.61L149.711 1347.45C147.957 1341.65 145.441 1336.66 142.132 1332.52L139.009 1335.02ZM145.891 1348.64C147.64 1354.13 148.531 1360.43 148.531 1367.56H152.531C152.531 1360.11 151.6 1353.39 149.703 1347.42L145.891 1348.64ZM148.531 1367.56C148.531 1375.33 147.449 1381.98 145.34 1387.56L149.082 1388.97C151.4 1382.84 152.531 1375.68 152.531 1367.56H148.531ZM145.322 1387.61C143.317 1393.37 140.52 1398.13 136.961 1401.94L139.882 1404.67C143.875 1400.4 146.938 1395.14 149.1 1388.92L145.322 1387.61ZM137.008 1401.89C133.313 1405.58 128.941 1408.36 123.868 1410.22L125.242 1413.97C130.845 1411.92 135.718 1408.84 139.836 1404.72L137.008 1401.89ZM123.828 1410.23C118.717 1412.22 113.079 1413.36 106.895 1413.61L107.058 1417.61C113.634 1417.34 119.715 1416.13 125.282 1413.96L123.828 1410.23ZM104.977 1415.61L104.977 1469.12H108.977L108.977 1415.61H104.977ZM106.977 1471.12C120.003 1471.12 132.011 1468.6 142.974 1463.52L141.292 1459.89C130.9 1464.7 119.471 1467.12 106.977 1467.12V1471.12ZM142.974 1463.52C153.903 1458.45 163.372 1451.38 171.367 1442.32L168.368 1439.68C160.738 1448.32 151.717 1455.06 141.292 1459.89L142.974 1463.52ZM171.378 1442.31C179.245 1433.24 185.355 1422.4 189.725 1409.82L185.947 1408.51C181.723 1420.67 175.854 1431.05 168.357 1439.69L171.378 1442.31ZM189.723 1409.83C194.105 1397.35 196.281 1383.58 196.281 1368.54H192.281C192.281 1383.19 190.161 1396.5 185.949 1408.5L189.723 1409.83ZM196.281 1368.54C196.281 1354.04 194.37 1340.56 190.528 1328.11L186.706 1329.28C190.417 1341.31 192.281 1354.39 192.281 1368.54H196.281ZM190.534 1328.12C186.827 1315.68 181.451 1304.84 174.383 1295.64L171.211 1298.08C177.945 1306.85 183.116 1317.23 186.7 1329.27L190.534 1328.12ZM174.383 1295.64C167.309 1286.43 158.752 1279.21 148.72 1273.99L146.874 1277.54C156.373 1282.48 164.482 1289.32 171.211 1298.08L174.383 1295.64ZM148.72 1273.99C138.644 1268.75 127.451 1266.15 115.18 1266.15V1270.15C126.867 1270.15 137.418 1272.62 146.874 1277.54L148.72 1273.99ZM115.18 1266.15C104.516 1266.15 94.6109 1268.08 85.4889 1271.97L87.058 1275.65C95.6443 1271.99 105.01 1270.15 115.18 1270.15V1266.15ZM85.4662 1271.98C76.3555 1276 68.0722 1281.89 60.6159 1289.61L63.4935 1292.39C70.6205 1285.01 78.483 1279.44 87.0807 1275.64L85.4662 1271.98ZM60.6159 1289.61C53.1584 1297.33 46.3466 1307.21 40.1605 1319.18L43.7145 1321.02C49.7679 1309.3 56.3676 1299.77 63.4935 1292.39L60.6159 1289.61ZM40.1565 1319.19C33.9625 1331.32 28.7086 1345.32 24.383 1361.18L28.242 1362.23C32.5101 1346.58 37.6729 1332.85 43.7185 1321.01L40.1565 1319.19ZM24.3813 1361.18C21.6673 1371.26 18.7108 1379.6 15.5256 1386.23L19.1306 1387.96C22.4558 1381.04 25.4889 1372.46 28.2437 1362.22L24.3813 1361.18ZM15.5062 1386.27C12.438 1393.04 9.08548 1398.46 5.47424 1402.57L8.47888 1405.21C12.4197 1400.73 15.9683 1394.95 19.15 1387.92L15.5062 1386.27ZM5.51749 1402.52C1.77652 1406.51 -2.14572 1409.25 -6.2377 1410.81L-4.80917 1414.55C-0.0469971 1412.73 4.36411 1409.6 8.43564 1405.26L5.51749 1402.52ZM-6.28494 1410.83C-10.4561 1412.55 -14.9483 1413.41 -19.7813 1413.41V1417.41C-14.4579 1417.41 -9.44501 1416.46 -4.76193 1414.53L-6.28494 1410.83ZM145.648 1730.98H143.648V1732.98H145.648V1730.98ZM190.375 1730.98V1732.98H192.375V1730.98H190.375ZM190.375 1501.68H192.375V1499.68H190.375V1501.68ZM145.648 1501.68V1499.68H143.648V1501.68H145.648ZM145.648 1588.2V1590.2H147.648V1588.2H145.648ZM-94 1588.2V1586.2H-96V1588.2H-94ZM-94 1643.28H-96V1645.28H-94V1643.28ZM145.648 1643.28H147.648V1641.28H145.648V1643.28ZM145.648 1732.98H190.375V1728.98H145.648V1732.98ZM192.375 1730.98L192.375 1501.68H188.375L188.375 1730.98H192.375ZM190.375 1499.68H145.648V1503.68H190.375V1499.68ZM143.648 1501.68V1588.2H147.648V1501.68H143.648ZM145.648 1586.2H-94V1590.2H145.648V1586.2ZM-96 1588.2V1643.28H-92V1588.2H-96ZM-94 1645.28H145.648V1641.28H-94V1645.28ZM143.648 1643.28V1730.98H147.648V1643.28H143.648ZM-94 2029.29V2027.29H-96V2029.29H-94ZM-89.3125 2141.2L-87.3861 2140.67L-87.3878 2140.66L-89.3125 2141.2ZM-75.8359 2171.87L-74.1384 2170.81L-74.1425 2170.8L-74.1467 2170.8L-75.8359 2171.87ZM-57.4766 2193.74L-58.8232 2195.22L-58.8167 2195.23L-58.8102 2195.23L-57.4766 2193.74ZM-33.2578 2211.12L-34.2445 2212.86L-34.2219 2212.88L-34.199 2212.89L-33.2578 2211.12ZM98.3828 2222.84L97.9026 2220.9L97.8928 2220.9L97.8831 2220.91L98.3828 2222.84ZM131.586 2209.95L132.561 2211.7L132.58 2211.69L132.599 2211.68L131.586 2209.95ZM154.242 2192.96L152.898 2191.48L152.884 2191.49L152.87 2191.51L154.242 2192.96ZM172.016 2171.09L170.32 2170.03L170.305 2170.05L170.291 2170.07L172.016 2171.09ZM185.492 2139.84L183.568 2139.29L183.565 2139.3L183.563 2139.31L185.492 2139.84ZM190.375 2029.29H192.375V2027.29H190.375V2029.29ZM145.844 2084.56H147.844V2082.56H145.844V2084.56ZM143.5 2121.28L141.574 2120.74L141.566 2120.77L141.56 2120.8L143.5 2121.28ZM137.25 2136.91L138.968 2137.93L138.973 2137.92L138.978 2137.91L137.25 2136.91ZM123.187 2152.92L121.942 2151.36L121.932 2151.37L121.921 2151.37L123.187 2152.92ZM103.656 2164.25L104.372 2166.12L104.38 2166.11L104.388 2166.11L103.656 2164.25ZM83.3437 2169.52L83.0318 2167.55L83.012 2167.55L82.9922 2167.55L83.3437 2169.52ZM11.8594 2169.52L12.1992 2167.55L12.1853 2167.55L12.1713 2167.55L11.8594 2169.52ZM-8.45313 2164.25L-9.20773 2166.1L-9.18814 2166.11L-9.16843 2166.12L-8.45313 2164.25ZM-27.0078 2153.9L-25.8016 2152.3L-25.8078 2152.3L-27.0078 2153.9ZM-39.8984 2140.62L-41.5556 2141.74L-41.549 2141.75L-39.8984 2140.62ZM-49.8594 2084.56V2082.56H-51.8594V2084.56H-49.8594ZM-96 2029.29V2105.66H-92V2029.29H-96ZM-96 2105.66C-96 2118.45 -94.4168 2130.49 -91.2372 2141.75L-87.3878 2140.66C-90.4582 2129.79 -92 2118.12 -92 2105.66H-96ZM-91.2389 2141.74C-88.0646 2153.12 -83.4956 2163.52 -77.5252 2172.94L-74.1467 2170.8C-79.8951 2161.73 -84.3104 2151.69 -87.3861 2140.67L-91.2389 2141.74ZM-77.5335 2172.92C-72.4834 2181.03 -66.2433 2188.46 -58.8232 2195.22L-56.1299 2192.26C-63.2932 2185.74 -69.2926 2178.59 -74.1384 2170.81L-77.5335 2172.92ZM-58.8102 2195.23C-51.2811 2201.97 -43.0918 2207.85 -34.2445 2212.86L-32.2711 2209.39C-40.8718 2204.51 -48.8282 2198.8 -56.143 2192.25L-58.8102 2195.23ZM-34.199 2212.89C-24.2734 2218.18 -13.3727 2222.28 -1.50616 2225.18L-0.556335 2221.29C-12.1273 2218.46 -22.711 2214.48 -32.3167 2209.36L-34.199 2212.89ZM-1.50616 2225.18C10.3813 2228.08 22.9766 2229.53 36.2734 2229.53V2225.53C23.2682 2225.53 10.9937 2224.11 -0.556335 2221.29L-1.50616 2225.18ZM36.2734 2229.53H59.7109V2225.53H36.2734V2229.53ZM59.7109 2229.53C73.5359 2229.53 86.5956 2227.95 98.8826 2224.78L97.8831 2220.91C85.9513 2223.99 73.2298 2225.53 59.7109 2225.53V2229.53ZM98.863 2224.79C111.131 2221.75 122.367 2217.39 132.561 2211.7L130.611 2208.21C120.753 2213.71 109.854 2217.95 97.9026 2220.9L98.863 2224.79ZM132.599 2211.68C140.931 2206.78 148.604 2201.03 155.615 2194.42L152.87 2191.51C146.078 2197.91 138.647 2203.49 130.573 2208.23L132.599 2211.68ZM155.586 2194.44C162.768 2187.93 168.82 2180.48 173.74 2172.1L170.291 2170.07C165.576 2178.1 159.779 2185.24 152.898 2191.48L155.586 2194.44ZM173.712 2172.15C179.682 2162.59 184.249 2151.99 187.422 2140.36L183.563 2139.31C180.485 2150.59 176.068 2160.83 170.32 2170.03L173.712 2172.15ZM187.416 2140.38C190.727 2128.73 192.375 2116.24 192.375 2102.92H188.375C188.375 2115.91 186.768 2128.03 183.568 2139.29L187.416 2140.38ZM192.375 2102.92L192.375 2029.29H188.375L188.375 2102.92H192.375ZM190.375 2027.29H-94V2031.29H190.375V2027.29ZM143.844 2084.56V2102.92H147.844V2084.56H143.844ZM143.844 2102.92C143.844 2109.41 143.081 2115.34 141.574 2120.74L145.426 2121.82C147.044 2116.02 147.844 2109.72 147.844 2102.92H143.844ZM141.56 2120.8C140.169 2126.36 138.154 2131.39 135.522 2135.9L138.978 2137.91C141.815 2133.05 143.966 2127.66 145.44 2121.77L141.56 2120.8ZM135.532 2135.88C132.013 2141.79 127.488 2146.95 121.942 2151.36L124.433 2154.49C130.346 2149.78 135.195 2144.26 138.968 2137.93L135.532 2135.88ZM121.921 2151.37C116.362 2155.92 110.034 2159.6 102.925 2162.39L104.388 2166.11C111.861 2163.18 118.555 2159.3 124.454 2154.47L121.921 2151.37ZM102.941 2162.38C96.9688 2164.67 90.3355 2166.39 83.0318 2167.55L83.6557 2171.5C91.1958 2170.31 98.1041 2168.52 104.372 2166.12L102.941 2162.38ZM82.9922 2167.55C75.8282 2168.83 68.1992 2169.48 60.1016 2169.48V2173.48C68.4102 2173.48 76.276 2172.82 83.6953 2171.49L82.9922 2167.55ZM60.1016 2169.48H36.2734V2173.48H60.1016V2169.48ZM36.2734 2169.48C27.6481 2169.48 19.6249 2168.83 12.1992 2167.55L11.5196 2171.49C19.198 2172.82 27.4509 2173.48 36.2734 2173.48V2169.48ZM12.1713 2167.55C4.86765 2166.39 -1.76569 2164.67 -7.73782 2162.38L-9.16843 2166.12C-2.90097 2168.52 4.00735 2170.31 11.5475 2171.5L12.1713 2167.55ZM-7.69852 2162.4C-14.5899 2159.59 -20.6189 2156.22 -25.8016 2152.3L-28.214 2155.49C-22.7196 2159.65 -16.3788 2163.18 -9.20773 2166.1L-7.69852 2162.4ZM-25.8078 2152.3C-30.8562 2148.51 -34.996 2144.24 -38.2478 2139.49L-41.549 2141.75C-38.03 2146.89 -33.576 2151.47 -28.2078 2155.5L-25.8078 2152.3ZM-38.2413 2139.5C-41.3738 2134.86 -43.7614 2129.71 -45.3989 2124.05L-49.2417 2125.16C-47.4939 2131.21 -44.9335 2136.74 -41.5556 2141.74L-38.2413 2139.5ZM-45.3989 2124.05C-47.0341 2118.39 -47.8594 2112.26 -47.8594 2105.66H-51.8594C-51.8594 2112.59 -50.9919 2119.1 -49.2417 2125.16L-45.3989 2124.05ZM-47.8594 2105.66V2084.56H-51.8594V2105.66H-47.8594ZM-49.8594 2086.56H145.844V2082.56H-49.8594V2086.56ZM30.6094 2459.7H28.6094V2461.7H30.6094V2459.7ZM73.9687 2459.7V2461.7H75.9687V2459.7H73.9687ZM73.9687 2342.9V2340.9H71.9687V2342.9H73.9687ZM145.648 2342.9H147.648V2340.9H145.648V2342.9ZM145.648 2478.84H143.648V2480.84H145.648V2478.84ZM190.375 2478.84V2480.84H192.375V2478.84H190.375ZM190.375 2287.82H192.375V2285.82H190.375V2287.82ZM-94 2287.82V2285.82H-96V2287.82H-94ZM-94 2479.42H-96V2481.42H-94V2479.42ZM-49.6641 2479.42V2481.42H-47.6641V2479.42H-49.6641ZM-49.6641 2342.9V2340.9H-51.6641V2342.9H-49.6641ZM30.6094 2342.9H32.6094V2340.9H30.6094V2342.9ZM30.6094 2461.7H73.9687V2457.7H30.6094V2461.7ZM75.9687 2459.7L75.9687 2342.9H71.9687L71.9687 2459.7H75.9687ZM73.9687 2344.9H145.648V2340.9H73.9687V2344.9ZM143.648 2342.9L143.648 2478.84H147.648L147.648 2342.9H143.648ZM145.648 2480.84H190.375V2476.84H145.648V2480.84ZM192.375 2478.84L192.375 2287.82H188.375L188.375 2478.84H192.375ZM190.375 2285.82H-94V2289.82H190.375V2285.82ZM-96 2287.82L-96 2479.42H-92L-92 2287.82H-96ZM-94 2481.42H-49.6641V2477.42H-94V2481.42ZM-47.6641 2479.42V2342.9H-51.6641V2479.42H-47.6641ZM-49.6641 2344.9H30.6094V2340.9H-49.6641V2344.9ZM28.6094 2342.9V2459.7H32.6094V2342.9H28.6094ZM-94 2605.34L-94.5786 2603.42L-96 2603.85V2605.34H-94ZM-94 2661.2H-96V2662.68L-94.5798 2663.11L-94 2661.2ZM190.375 2747.33L189.795 2749.24L192.375 2750.02V2747.33H190.375ZM190.375 2686.78H192.375V2685.24L190.88 2684.85L190.375 2686.78ZM4.82812 2638.34L4.30188 2640.27L4.31241 2640.28L4.32294 2640.28L4.82812 2638.34ZM-14.5078 2633.07L-15.0022 2631.13L-22.3458 2633.01L-15.0341 2635L-14.5078 2633.07ZM4.63281 2628.19L5.1272 2630.13L5.13559 2630.12L4.63281 2628.19ZM190.375 2579.95L190.878 2581.88L192.375 2581.49V2579.95H190.375ZM190.375 2519.4H192.375V2516.7L189.796 2517.48L190.375 2519.4ZM-96 2605.34V2661.2H-92V2605.34H-96ZM-94.5798 2663.11L189.795 2749.24L190.955 2745.41L-93.4202 2659.28L-94.5798 2663.11ZM192.375 2747.33V2686.78H188.375V2747.33H192.375ZM190.88 2684.85L5.33331 2636.41L4.32294 2640.28L189.87 2688.72L190.88 2684.85ZM5.35437 2636.41L-13.9816 2631.14L-15.0341 2635L4.30188 2640.27L5.35437 2636.41ZM-14.0134 2635.01L5.1272 2630.13L4.13843 2626.25L-15.0022 2631.13L-14.0134 2635.01ZM5.13559 2630.12L190.878 2581.88L189.872 2578.01L4.13004 2626.25L5.13559 2630.12ZM192.375 2579.95L192.375 2519.4H188.375L188.375 2579.95H192.375ZM189.796 2517.48L-94.5786 2603.42L-93.4214 2607.25L190.954 2521.31L189.796 2517.48ZM30.6094 2968.16H28.6094V2970.16H30.6094V2968.16ZM73.9687 2968.16V2970.16H75.9687V2968.16H73.9687ZM73.9687 2851.37V2849.37H71.9687V2851.37H73.9687ZM145.648 2851.37H147.648V2849.37H145.648V2851.37ZM145.648 2987.3H143.648L143.648 2989.3H145.648L145.648 2987.3ZM190.375 2987.3L190.375 2989.3H192.375L192.375 2987.3H190.375ZM190.375 2796.29H192.375V2794.29H190.375V2796.29ZM-94 2796.29V2794.29H-96V2796.29H-94ZM-94 2987.89H-96V2989.89H-94V2987.89ZM-49.6641 2987.89V2989.89H-47.6641V2987.89H-49.6641ZM-49.6641 2851.37V2849.37H-51.6641V2851.37H-49.6641ZM30.6094 2851.37H32.6094V2849.37H30.6094V2851.37ZM30.6094 2970.16H73.9687V2966.16H30.6094V2970.16ZM75.9687 2968.16V2851.37H71.9687V2968.16H75.9687ZM73.9687 2853.37H145.648V2849.37H73.9687V2853.37ZM143.648 2851.37V2987.3H147.648V2851.37H143.648ZM145.648 2989.3H190.375L190.375 2985.3H145.648L145.648 2989.3ZM192.375 2987.3L192.375 2796.29H188.375L188.375 2987.3H192.375ZM190.375 2794.29H-94V2798.29H190.375V2794.29ZM-96 2796.29L-96 2987.89H-92L-92 2796.29H-96ZM-94 2989.89H-49.6641V2985.89H-94V2989.89ZM-47.6641 2987.89L-47.6641 2851.37H-51.6641L-51.6641 2987.89H-47.6641ZM-49.6641 2853.37H30.6094V2849.37H-49.6641V2853.37ZM28.6094 2851.37L28.6094 2968.16H32.6094L32.6094 2851.37H28.6094ZM-49.6641 3106.19V3104.19H-51.6641V3106.19H-49.6641ZM190.375 3106.19V3108.19H192.375V3106.19H190.375ZM190.375 3051.11H192.375V3049.11H190.375V3051.11ZM-94 3051.11V3049.11H-96V3051.11H-94ZM-94 3239.39H-96V3241.39H-94V3239.39ZM-49.6641 3239.39V3241.39H-47.6641V3239.39H-49.6641ZM-49.6641 3108.19H190.375V3104.19H-49.6641V3108.19ZM192.375 3106.19V3051.11H188.375V3106.19H192.375ZM190.375 3049.11H-94V3053.11H190.375V3049.11ZM-96 3051.11L-96 3239.39H-92L-92 3051.11H-96ZM-94 3241.39H-49.6641V3237.39H-94V3241.39ZM-47.6641 3239.39L-47.6641 3106.19H-51.6641L-51.6641 3239.39H-47.6641ZM105.219 3496.36L104.818 3494.4L104.807 3494.4L104.797 3494.4L105.219 3496.36ZM136.859 3486.01L137.714 3487.82L137.729 3487.81L137.743 3487.8L136.859 3486.01ZM160.102 3470.97L158.838 3469.42L158.83 3469.43L158.821 3469.43L160.102 3470.97ZM178.07 3450.85L176.415 3449.73L176.402 3449.75L176.389 3449.77L178.07 3450.85ZM189.984 3424.88L188.069 3424.3L188.065 3424.31L188.06 3424.33L189.984 3424.88ZM178.461 3339.13L180.112 3338L180.107 3338L178.461 3339.13ZM159.711 3319.02L160.964 3317.46L160.955 3317.45L160.947 3317.44L159.711 3319.02ZM135.297 3304.37L136.117 3302.54L136.108 3302.54L136.1 3302.54L135.297 3304.37ZM104.242 3294.8L104.63 3292.83L104.619 3292.83L104.608 3292.83L104.242 3294.8ZM-6.10938 3294.41L-6.45001 3292.44L-6.46179 3292.44L-6.47354 3292.44L-6.10938 3294.41ZM-35.4063 3302.8L-36.1583 3300.95L-36.1702 3300.96L-35.4063 3302.8ZM-61.7734 3317.84L-62.9903 3316.26L-62.9968 3316.26L-63.0032 3316.27L-61.7734 3317.84ZM-81.5 3338.16L-83.1199 3336.98L-83.138 3337.01L-83.1554 3337.03L-81.5 3338.16ZM-94 3423.51L-92.0698 3422.98L-92.0743 3422.97L-92.0791 3422.95L-94 3423.51ZM-83.4531 3448.51L-85.1655 3449.54L-85.1574 3449.55L-85.1491 3449.57L-83.4531 3448.51ZM-63.9219 3470.77L-65.2022 3472.31L-63.9219 3470.77ZM-38.1406 3487.18L-38.9946 3488.99L-38.9739 3489L-38.9529 3489.01L-38.1406 3487.18ZM-7.67188 3496.75L-8.0686 3498.71L-8.06412 3498.71L-7.67188 3496.75ZM6.97656 3443.23L7.21484 3441.25L7.19522 3441.25L7.17557 3441.24L6.97656 3443.23ZM-10.9922 3440.11L-10.4855 3438.17L-10.4903 3438.17L-10.9922 3440.11ZM-29.9375 3432.69L-28.9628 3430.94L-28.9698 3430.94L-28.9769 3430.93L-29.9375 3432.69ZM-43.6094 3421.55L-42.0655 3420.28L-42.0761 3420.27L-42.0869 3420.26L-43.6094 3421.55ZM-50.25 3378.98L-52.1181 3378.26L-52.1215 3378.27L-52.1248 3378.28L-50.25 3378.98ZM-43.0234 3367.06L-44.4872 3365.7L-44.5029 3365.72L-44.5182 3365.73L-43.0234 3367.06ZM-29.3516 3357.1L-30.213 3355.3L-30.2379 3355.31L-30.2625 3355.32L-29.3516 3357.1ZM-10.4063 3350.85L-9.99982 3352.81L-9.97131 3352.8L-9.94302 3352.8L-10.4063 3350.85ZM89.9844 3348.12L90.1795 3346.13L90.1602 3346.12L90.1408 3346.12L89.9844 3348.12ZM108.344 3351.05L107.891 3352.99L107.891 3353L108.344 3351.05ZM127.484 3358.08L128.477 3356.34L128.461 3356.33L128.445 3356.32L127.484 3358.08ZM141.156 3369.41L142.749 3368.2L142.725 3368.17L142.7 3368.13L141.156 3369.41ZM146.82 3380.34L148.729 3379.75L148.727 3379.74L148.724 3379.73L146.82 3380.34ZM146.625 3408.66L144.728 3408.03L144.725 3408.04L144.722 3408.05L146.625 3408.66ZM140.57 3420.58L142.137 3421.82L142.157 3421.8L142.177 3421.77L140.57 3420.58ZM126.898 3432.1L125.893 3430.37L125.884 3430.38L125.875 3430.38L126.898 3432.1ZM108.148 3439.91L107.613 3437.99L107.611 3437.99L108.148 3439.91ZM89.7891 3443.23L89.5939 3441.24L89.5723 3441.25L89.5508 3441.25L89.7891 3443.23ZM27.2891 3502.07H68.6953V3498.07H27.2891V3502.07ZM68.6953 3502.07C81.7139 3502.07 94.0308 3500.82 105.641 3498.31L104.797 3494.4C93.49 3496.85 81.4579 3498.07 68.6953 3498.07V3502.07ZM105.62 3498.32C117.22 3495.95 127.921 3492.45 137.714 3487.82L136.004 3484.2C126.527 3488.68 116.134 3492.09 104.818 3494.4L105.62 3498.32ZM137.743 3487.8C146.344 3483.57 154.225 3478.47 161.382 3472.51L158.821 3469.43C151.915 3475.19 144.302 3480.11 135.976 3484.21L137.743 3487.8ZM161.365 3472.52C168.56 3466.66 174.691 3459.79 179.752 3451.93L176.389 3449.77C171.554 3457.28 165.705 3463.82 158.838 3469.42L161.365 3472.52ZM179.726 3451.97C185.063 3444.1 189.12 3435.25 191.908 3425.42L188.06 3424.33C185.38 3433.78 181.494 3442.24 176.415 3449.73L179.726 3451.97ZM191.899 3425.45C194.826 3415.74 196.281 3405.32 196.281 3394.21H192.281C192.281 3404.97 190.872 3415 188.069 3424.3L191.899 3425.45ZM196.281 3394.21C196.281 3383.23 194.893 3373.02 192.098 3363.57L188.262 3364.7C190.936 3373.74 192.281 3383.57 192.281 3394.21H196.281ZM192.098 3363.57C189.308 3354.14 185.316 3345.61 180.112 3338L176.81 3340.26C181.762 3347.5 185.582 3355.64 188.262 3364.7L192.098 3363.57ZM180.107 3338C174.787 3330.28 168.403 3323.44 160.964 3317.46L158.458 3320.57C165.602 3326.31 171.718 3332.88 176.815 3340.27L180.107 3338ZM160.947 3317.44C153.519 3311.61 145.24 3306.64 136.117 3302.54L134.477 3306.19C143.322 3310.17 151.319 3314.97 158.475 3320.59L160.947 3317.44ZM136.1 3302.54C126.449 3298.3 115.957 3295.07 104.63 3292.83L103.854 3296.76C114.924 3298.95 125.134 3302.1 134.494 3306.2L136.1 3302.54ZM104.608 3292.83C93.2784 3290.72 81.3063 3289.67 68.6953 3289.67V3293.67C81.0843 3293.67 92.8101 3294.7 103.876 3296.76L104.608 3292.83ZM68.6953 3289.67H27.2891V3293.67H68.6953V3289.67ZM27.2891 3289.67C15.4668 3289.67 4.21939 3290.59 -6.45001 3292.44L-5.76874 3296.38C4.65561 3294.58 15.6739 3293.67 27.2891 3293.67V3289.67ZM-6.47354 3292.44C-17.1394 3294.41 -27.0364 3297.25 -36.1583 3300.95L-34.6542 3304.66C-25.8074 3301.07 -16.1731 3298.3 -5.74521 3296.37L-6.47354 3292.44ZM-36.1702 3300.96C-46.0858 3305.05 -55.0291 3310.15 -62.9903 3316.26L-60.5566 3319.43C-52.8928 3313.56 -44.258 3308.63 -34.6423 3304.65L-36.1702 3300.96ZM-63.0032 3316.27C-70.8272 3322.37 -77.5359 3329.27 -83.1199 3336.98L-79.8801 3339.33C-74.5266 3331.94 -68.0842 3325.3 -60.5437 3319.42L-63.0032 3316.27ZM-83.1554 3337.03C-88.4821 3344.89 -92.6024 3353.6 -95.5221 3363.16L-91.6967 3364.33C-88.8872 3355.13 -84.9346 3346.79 -79.8446 3339.28L-83.1554 3337.03ZM-95.5221 3363.16C-98.4514 3372.74 -99.9063 3383.17 -99.9063 3394.41H-95.9063C-95.9063 3383.51 -94.4965 3373.49 -91.6967 3364.33L-95.5221 3363.16ZM-99.9063 3394.41C-99.9063 3404.99 -98.5831 3414.88 -95.9209 3424.06L-92.0791 3422.95C-94.6252 3414.17 -95.9063 3404.66 -95.9063 3394.41H-99.9063ZM-95.9302 3424.03C-93.411 3433.31 -89.8252 3441.82 -85.1655 3449.54L-81.7408 3447.47C-86.1956 3440.09 -89.6411 3431.93 -92.0698 3422.98L-95.9302 3424.03ZM-85.1491 3449.57C-79.8245 3458.09 -73.1719 3465.67 -65.2022 3472.31L-62.6415 3469.24C-70.2968 3462.86 -76.6651 3455.59 -81.7571 3447.45L-85.1491 3449.57ZM-65.2022 3472.31C-57.2572 3478.93 -48.5197 3484.49 -38.9946 3488.99L-37.2866 3485.37C-46.5116 3481.01 -54.9616 3475.64 -62.6415 3469.24L-65.2022 3472.31ZM-38.9529 3489.01C-29.4336 3493.24 -19.1367 3496.47 -8.0686 3498.71L-7.27515 3494.79C-18.0821 3492.6 -28.0977 3489.45 -37.3283 3485.35L-38.9529 3489.01ZM-8.06412 3498.71C3.14307 3500.95 14.9287 3502.07 27.2891 3502.07V3498.07C15.1702 3498.07 3.64859 3496.97 -7.27963 3494.79L-8.06412 3498.71ZM69.0859 3442.41H27.2891V3446.41H69.0859V3442.41ZM27.2891 3442.41C20.3318 3442.41 13.6407 3442.02 7.21484 3441.25L6.73828 3445.22C13.3332 3446.01 20.1838 3446.41 27.2891 3446.41V3442.41ZM7.17557 3441.24C0.753235 3440.6 -5.13196 3439.58 -10.4855 3438.17L-11.4989 3442.04C-5.91492 3443.51 0.179047 3444.56 6.77756 3445.22L7.17557 3441.24ZM-10.4903 3438.17C-17.3779 3436.39 -23.5309 3433.97 -28.9628 3430.94L-30.9122 3434.43C-25.1462 3437.65 -18.6689 3440.19 -11.4941 3442.05L-10.4903 3438.17ZM-28.9769 3430.93C-34.2418 3428.05 -38.5952 3424.5 -42.0655 3420.28L-45.1532 3422.83C-41.3319 3427.47 -36.5707 3431.34 -30.8981 3434.44L-28.9769 3430.93ZM-42.0869 3420.26C-44.912 3416.94 -47.0687 3413.13 -48.5534 3408.8L-52.3372 3410.09C-50.6969 3414.88 -48.2964 3419.14 -45.1319 3422.85L-42.0869 3420.26ZM-48.5534 3408.8C-50.0354 3404.47 -50.7891 3399.68 -50.7891 3394.41H-54.7891C-54.7891 3400.07 -53.9802 3405.3 -52.3372 3410.09L-48.5534 3408.8ZM-50.7891 3394.41C-50.7891 3388.87 -49.9718 3383.97 -48.3752 3379.67L-52.1248 3378.28C-53.9136 3383.1 -54.7891 3388.48 -54.7891 3394.41H-50.7891ZM-48.3819 3379.69C-46.7748 3375.49 -44.4919 3371.72 -41.5286 3368.39L-44.5182 3365.73C-47.805 3369.43 -50.3398 3373.61 -52.1181 3378.26L-48.3819 3379.69ZM-41.5597 3368.43C-38.233 3364.85 -33.8763 3361.66 -28.4406 3358.88L-30.2625 3355.32C-36.0247 3358.27 -40.7826 3361.72 -44.4872 3365.7L-41.5597 3368.43ZM-28.4901 3358.91C-22.9208 3356.25 -16.7606 3354.21 -9.99982 3352.81L-10.8127 3348.89C-17.854 3350.35 -24.324 3352.49 -30.213 3355.3L-28.4901 3358.91ZM-9.94302 3352.8C-4.58554 3351.52 1.23734 3350.62 7.52991 3350.11L7.20447 3346.12C0.736633 3346.65 -5.28946 3347.58 -10.8695 3348.91L-9.94302 3352.8ZM7.52991 3350.11C13.852 3349.59 20.4382 3349.34 27.2891 3349.34V3345.34C20.3379 3345.34 13.6428 3345.6 7.20447 3346.12L7.52991 3350.11ZM27.2891 3349.34H69.0859V3345.34H27.2891V3349.34ZM69.0859 3349.34C76.3302 3349.34 83.244 3349.59 89.828 3350.11L90.1408 3346.12C83.4435 3345.6 76.425 3345.34 69.0859 3345.34V3349.34ZM89.7892 3350.11C96.3565 3350.75 102.389 3351.72 107.891 3352.99L108.797 3349.1C103.101 3347.77 96.8935 3346.78 90.1795 3346.13L89.7892 3350.11ZM107.891 3353C115.04 3354.65 121.243 3356.94 126.524 3359.83L128.445 3356.32C122.788 3353.23 116.231 3350.82 108.796 3349.1L107.891 3353ZM126.492 3359.81C131.771 3362.83 136.135 3366.46 139.612 3370.68L142.7 3368.13C138.886 3363.5 134.135 3359.58 128.477 3356.34L126.492 3359.81ZM139.564 3370.62C141.896 3373.69 143.682 3377.13 144.917 3380.96L148.724 3379.73C147.355 3375.49 145.364 3371.64 142.749 3368.2L139.564 3370.62ZM144.911 3380.94C146.144 3384.89 146.773 3389.3 146.773 3394.21H150.773C150.773 3388.96 150.101 3384.14 148.729 3379.75L144.911 3380.94ZM146.773 3394.21C146.773 3399.37 146.081 3403.97 144.728 3408.03L148.522 3409.3C150.034 3404.76 150.773 3399.73 150.773 3394.21H146.773ZM144.722 3408.05C143.352 3412.28 141.43 3416.06 138.963 3419.39L142.177 3421.77C144.919 3418.07 147.033 3413.9 148.528 3409.28L144.722 3408.05ZM139.004 3419.33C135.664 3423.54 131.308 3427.22 125.893 3430.37L127.904 3433.83C133.687 3430.47 138.445 3426.47 142.137 3421.82L139.004 3419.33ZM125.875 3430.38C120.58 3433.54 114.498 3436.07 107.613 3437.99L108.684 3441.84C115.862 3439.85 122.28 3437.18 127.921 3433.82L125.875 3430.38ZM107.611 3437.99C102.139 3439.51 96.1353 3440.6 89.5939 3441.24L89.9842 3445.22C96.724 3444.56 102.96 3443.44 108.686 3441.84L107.611 3437.99ZM89.5508 3441.25C83.1276 3442.02 76.3067 3442.41 69.0859 3442.41V3446.41C76.4485 3446.41 83.4297 3446.01 90.0274 3445.22L89.5508 3441.25ZM10.2969 3614.27H12.2969V3612.27H10.2969V3614.27ZM35.4922 3730.67L36.9821 3729.34L36.981 3729.34L35.4922 3730.67ZM63.4219 3750.79L64.2362 3748.96L64.227 3748.96L64.2177 3748.95L63.4219 3750.79ZM136.078 3750.79L135.306 3748.94L135.297 3748.95L135.288 3748.95L136.078 3750.79ZM164.984 3730.67L166.452 3732.03L166.463 3732.02L166.473 3732.01L164.984 3730.67ZM183.539 3698.64L181.66 3697.96L181.657 3697.96L181.654 3697.97L183.539 3698.64ZM190.375 3559.38H192.375V3557.38H190.375V3559.38ZM-94 3559.38V3557.38H-96V3559.38H-94ZM-94 3614.27H-96V3616.27H-94V3614.27ZM54.8281 3614.27V3612.27H52.8281V3614.27H54.8281ZM145.844 3614.27H147.844V3612.27H145.844V3614.27ZM131.977 3691.41L133.297 3692.92L133.309 3692.91L133.322 3692.89L131.977 3691.41ZM116.937 3699.81L116.331 3697.91L116.312 3697.91L116.292 3697.92L116.937 3699.81ZM81.7812 3699.81L82.4684 3697.93L82.4552 3697.93L82.442 3697.92L81.7812 3699.81ZM67.9141 3691.41L66.5232 3692.85L66.5354 3692.86L66.5478 3692.87L67.9141 3691.41ZM8.29687 3614.27V3656.65H12.2969V3614.27H8.29687ZM8.29687 3656.65C8.29687 3672.33 10.5376 3686.56 15.0522 3699.31L18.8228 3697.97C14.4832 3685.72 12.2969 3671.95 12.2969 3656.65H8.29687ZM15.0522 3699.31C19.5566 3712.03 25.8672 3722.94 34.0034 3732.01L36.981 3729.34C29.2318 3720.7 23.1726 3710.25 18.8228 3697.97L15.0522 3699.31ZM34.0023 3732.01C42.0085 3740.95 51.5556 3747.82 62.626 3752.62L64.2177 3748.95C53.6736 3744.38 44.6009 3737.85 36.9821 3729.34L34.0023 3732.01ZM62.6075 3752.62C73.6908 3757.56 85.7547 3760.02 98.7734 3760.02V3756.02C86.2713 3756.02 74.7676 3753.66 64.2362 3748.96L62.6075 3752.62ZM98.7734 3760.02C112.684 3760.02 125.392 3757.56 136.869 3752.63L135.288 3748.95C124.368 3753.65 112.207 3756.02 98.7734 3756.02V3760.02ZM136.85 3752.63C148.307 3747.84 158.181 3740.97 166.452 3732.03L163.516 3729.31C155.642 3737.82 146.246 3744.36 135.306 3748.94L136.85 3752.63ZM166.473 3732.01C174.609 3722.94 180.92 3712.03 185.424 3699.31L181.654 3697.97C177.304 3710.25 171.245 3720.7 163.496 3729.34L166.473 3732.01ZM185.418 3699.33C190.067 3686.57 192.375 3672.34 192.375 3656.65H188.375C188.375 3671.95 186.125 3685.71 181.66 3697.96L185.418 3699.33ZM192.375 3656.65L192.375 3559.38H188.375L188.375 3656.65H192.375ZM190.375 3557.38H-94V3561.38H190.375V3557.38ZM-96 3559.38V3614.27H-92V3559.38H-96ZM-94 3616.27H10.2969V3612.27H-94V3616.27ZM54.8281 3616.27H145.844V3612.27H54.8281V3616.27ZM143.844 3614.27V3656.65H147.844V3614.27H143.844ZM143.844 3656.65C143.844 3664.25 142.639 3670.74 140.297 3676.17L143.969 3677.75C146.575 3671.72 147.844 3664.67 147.844 3656.65H143.844ZM140.297 3676.17C137.927 3681.66 134.702 3686.23 130.631 3689.93L133.322 3692.89C137.845 3688.78 141.391 3683.72 143.969 3677.75L140.297 3676.17ZM130.656 3689.91C126.578 3693.5 121.811 3696.16 116.331 3697.91L117.544 3701.72C123.523 3699.82 128.782 3696.88 133.297 3692.92L130.656 3689.91ZM116.292 3697.92C110.79 3699.8 104.825 3700.74 98.3828 3700.74V3704.74C105.222 3704.74 111.627 3703.74 117.583 3701.71L116.292 3697.92ZM98.3828 3700.74C92.8862 3700.74 87.5851 3699.81 82.4684 3697.93L81.0941 3701.69C86.6545 3703.73 92.4211 3704.74 98.3828 3704.74V3700.74ZM82.442 3697.92C77.4964 3696.19 73.1142 3693.54 69.2804 3689.95L66.5478 3692.87C70.7868 3696.84 75.6494 3699.79 81.1205 3701.7L82.442 3697.92ZM69.3049 3689.98C65.4867 3686.28 62.4446 3681.7 60.1949 3676.2L56.4926 3677.72C58.9304 3683.68 62.2685 3688.73 66.5232 3692.85L69.3049 3689.98ZM60.1949 3676.2C57.9715 3670.77 56.8281 3664.27 56.8281 3656.65H52.8281C52.8281 3664.66 54.0285 3671.69 56.4926 3677.72L60.1949 3676.2ZM56.8281 3656.65V3614.27H52.8281V3656.65H56.8281ZM190.375 3877.48L190.864 3879.42L192.375 3879.04V3877.48H190.375ZM190.375 3809.32H192.375V3807.32H190.375V3809.32ZM-94 3809.32V3807.32H-96V3809.32H-94ZM-94 3859.71H-96V3861.71H-94V3859.71ZM-9.82031 3859.71V3861.71H-9.80197L-9.78363 3861.71L-9.82031 3859.71ZM117.914 3857.37L118.458 3859.29L117.877 3855.37L117.914 3857.37ZM-0.25 3890.77L-0.793976 3888.84L-2.25 3889.25V3890.77H-0.25ZM-0.25 3917.91H-2.25V3919.4L-0.828583 3919.83L-0.25 3917.91ZM123.187 3955.22L123.152 3957.22L123.766 3953.3L123.187 3955.22ZM-9.82031 3952.88L-9.78506 3950.88L-9.8027 3950.88H-9.82031V3952.88ZM-94 3952.88V3950.88H-96V3952.88H-94ZM-94 4003.27H-96V4005.27H-94V4003.27ZM190.375 4003.27V4005.27H192.375V4003.27H190.375ZM190.375 3935.1H192.375V3933.59L190.927 3933.18L190.375 3935.1ZM83.5391 3904.44L83.0498 3902.5L75.8562 3904.31L82.9873 3906.36L83.5391 3904.44ZM192.375 3877.48V3809.32H188.375V3877.48H192.375ZM190.375 3807.32H-94V3811.32H190.375V3807.32ZM-96 3809.32L-96 3859.71H-92L-92 3809.32H-96ZM-94 3861.71H-9.82031V3857.71H-94V3861.71ZM-9.78363 3861.71L117.951 3859.37L117.877 3855.37L-9.85699 3857.71L-9.78363 3861.71ZM117.37 3855.44L-0.793976 3888.84L0.293976 3892.69L118.458 3859.29L117.37 3855.44ZM-2.25 3890.77V3917.91H1.75V3890.77H-2.25ZM-0.828583 3919.83L122.609 3957.13L123.766 3953.3L0.328583 3916L-0.828583 3919.83ZM123.223 3953.22L-9.78506 3950.88L-9.85556 3954.87L123.152 3957.22L123.223 3953.22ZM-9.82031 3950.88H-94V3954.88H-9.82031V3950.88ZM-96 3952.88V4003.27H-92V3952.88H-96ZM-94 4005.27H190.375V4001.27H-94V4005.27ZM192.375 4003.27V3935.1H188.375V4003.27H192.375ZM190.927 3933.18L84.0908 3902.52L82.9873 3906.36L189.823 3937.02L190.927 3933.18ZM84.0283 3906.38L190.864 3879.42L189.886 3875.55L83.0498 3902.5L84.0283 3906.38ZM30.6094 4239.34H28.6094V4241.34H30.6094V4239.34ZM73.9687 4239.34V4241.34H75.9687V4239.34H73.9687ZM73.9687 4122.54V4120.54H71.9687V4122.54H73.9687ZM145.648 4122.54H147.648V4120.54H145.648V4122.54ZM145.648 4258.48H143.648V4260.48H145.648V4258.48ZM190.375 4258.48V4260.48H192.375V4258.48H190.375ZM190.375 4067.46H192.375V4065.46H190.375V4067.46ZM-94 4067.46V4065.46H-96V4067.46H-94ZM-94 4259.06H-96V4261.06H-94V4259.06ZM-49.6641 4259.06V4261.06H-47.6641V4259.06H-49.6641ZM-49.6641 4122.54V4120.54H-51.6641V4122.54H-49.6641ZM30.6094 4122.54H32.6094V4120.54H30.6094V4122.54ZM30.6094 4241.34H73.9687V4237.34H30.6094V4241.34ZM75.9687 4239.34L75.9687 4122.54H71.9687L71.9687 4239.34H75.9687ZM73.9687 4124.54H145.648V4120.54H73.9687V4124.54ZM143.648 4122.54L143.648 4258.48H147.648L147.648 4122.54H143.648ZM145.648 4260.48H190.375V4256.48H145.648V4260.48ZM192.375 4258.48L192.375 4067.46H188.375L188.375 4258.48H192.375ZM190.375 4065.46H-94V4069.46H190.375V4065.46ZM-96 4067.46L-96 4259.06H-92L-92 4067.46H-96ZM-94 4261.06H-49.6641V4257.06H-94V4261.06ZM-47.6641 4259.06L-47.6641 4122.54H-51.6641L-51.6641 4259.06H-47.6641ZM-49.6641 4124.54H30.6094V4120.54H-49.6641V4124.54ZM28.6094 4122.54L28.6094 4239.34H32.6094L32.6094 4122.54H28.6094ZM-94 4506.07H-96V4508.07H-94V4506.07ZM190.375 4506.07V4508.07H192.375V4506.07H190.375ZM190.375 4450.99H192.375V4448.99L190.377 4448.99L190.375 4450.99ZM7.75781 4450.8L6.96783 4448.96L7.75568 4452.8L7.75781 4450.8ZM190.375 4372.28L191.165 4374.12L192.375 4373.6V4372.28H190.375ZM190.375 4317.01H192.375V4315.01H190.375V4317.01ZM-94 4317.01V4315.01H-96V4317.01H-94ZM-94 4372.28H-96V4374.28H-94V4372.28ZM89.3984 4372.28L90.1905 4374.12L89.3984 4370.28V4372.28ZM-94 4451.38L-94.7921 4449.55L-96 4450.07V4451.38H-94ZM-94 4508.07H190.375V4504.07H-94V4508.07ZM192.375 4506.07V4450.99H188.375V4506.07H192.375ZM190.377 4448.99L7.75995 4448.8L7.75568 4452.8L190.373 4452.99L190.377 4448.99ZM8.54779 4452.63L191.165 4374.12L189.585 4370.44L6.96783 4448.96L8.54779 4452.63ZM192.375 4372.28V4317.01H188.375V4372.28H192.375ZM190.375 4315.01H-94V4319.01H190.375V4315.01ZM-96 4317.01V4372.28H-92V4317.01H-96ZM-94 4374.28H89.3984V4370.28H-94V4374.28ZM88.6064 4370.44L-94.7921 4449.55L-93.2079 4453.22L90.1905 4374.12L88.6064 4370.44ZM-96 4451.38L-96 4506.07H-92L-92 4451.38H-96ZM145.648 4781.79H143.648V4783.79H145.648V4781.79ZM190.375 4781.79V4783.79H192.375V4781.79H190.375ZM190.375 4552.49H192.375V4550.49H190.375V4552.49ZM145.648 4552.49V4550.49H143.648V4552.49H145.648ZM145.648 4639.02V4641.02H147.648V4639.02H145.648ZM-94 4639.02V4637.02H-96V4639.02H-94ZM-94 4694.09H-96V4696.09H-94V4694.09ZM145.648 4694.09H147.648V4692.09H145.648V4694.09ZM145.648 4783.79H190.375V4779.79H145.648V4783.79ZM192.375 4781.79L192.375 4552.49H188.375L188.375 4781.79H192.375ZM190.375 4550.49H145.648V4554.49H190.375V4550.49ZM143.648 4552.49V4639.02H147.648V4552.49H143.648ZM145.648 4637.02H-94V4641.02H145.648V4637.02ZM-96 4639.02V4694.09H-92V4639.02H-96ZM-94 4696.09H145.648V4692.09H-94V4696.09ZM143.648 4694.09V4781.79H147.648V4694.09H143.648Z" fill="#878A8C"/>
</svg>
