<svg width="41" height="42" viewBox="0 0 41 42" fill="none" xmlns="http://www.w3.org/2000/svg">
<path d="M18.5371 0.811268C8.89275 1.84506 1.36833 9.42182 0.491574 18.9615C0.439231 19.6027 0.399973 20.1392 0.413059 20.1523C0.426145 20.1785 2.86013 21.1861 5.81755 22.4162L11.209 24.6277L11.6277 24.379C12.1642 24.0781 13.4597 23.7247 14.0879 23.7247C14.559 23.7247 14.572 23.7117 16.9668 20.2177L19.3615 16.7238L19.5316 15.5984C19.9111 13.0597 21.1412 11.1492 23.1695 9.93217C24.465 9.14701 25.4726 8.87221 27.0429 8.87221C29.3199 8.87221 30.9295 9.5265 32.4867 11.0837C34.0701 12.6671 34.7113 14.2505 34.6851 16.5929C34.672 17.7968 34.6197 18.1763 34.3449 18.9091C33.2326 21.8796 30.8379 23.764 27.7496 24.0912L26.8336 24.1828L23.3527 26.6691L19.8719 29.1554L19.8064 29.9798C19.7148 31.1183 19.0213 32.5054 18.1445 33.3298C16.1685 35.1749 13.1588 35.3581 10.9865 33.7486C10.1228 33.1205 9.50779 32.283 9.10212 31.1837L8.8404 30.464L5.16325 28.9591C3.14802 28.1347 1.44685 27.4281 1.38142 27.415C1.19822 27.3365 1.87868 29.1423 2.53298 30.464C6.69431 38.8521 16.247 43.2882 25.2763 40.9982C29.032 40.056 32.0287 38.3679 34.6982 35.6853C36.2554 34.1281 37.3547 32.6101 38.3492 30.6603C39.6578 28.1216 40.299 25.7923 40.5345 22.704C41.0187 16.6322 38.9642 10.966 34.7636 6.71303C31.7277 3.65092 28.0898 1.75346 23.8631 1.02065C22.4236 0.785095 19.8326 0.680408 18.5371 0.811268Z" fill="#F94655"/>
<path d="M26.1531 11.5547C24.7137 11.8557 23.3396 12.968 22.633 14.4206C22.3059 15.0749 22.2666 15.2973 22.2666 16.462C22.2666 17.679 22.2928 17.836 22.6984 18.6473C23.235 19.7335 24.2557 20.7149 25.3156 21.1206C26.3363 21.5393 27.9721 21.5393 29.0059 21.1336C29.9742 20.7542 31.0865 19.7465 31.5969 18.7913C33.2981 15.5983 31.1258 11.7249 27.5141 11.4893C27.0691 11.4631 26.4672 11.4893 26.1531 11.5547ZM28.8619 13.0073C32.4867 14.8131 31.0473 20.2176 26.9252 20.2176C25.5773 20.2176 24.1902 19.2885 23.6014 17.9799C23.2088 17.1163 23.2219 15.6376 23.6275 14.8001C24.5959 12.811 26.8859 12.0258 28.8619 13.0073Z" fill="#F94655"/>
<path d="M14.0225 24.9678C13.957 24.994 13.6691 25.0463 13.3812 25.0986C13.1064 25.1379 12.9232 25.2295 12.9887 25.2949C13.0541 25.3473 13.7084 25.6483 14.4412 25.9492C16.391 26.7606 17.0977 27.6111 17.0977 29.1815C17.0846 30.9611 15.6713 32.3613 13.9047 32.3613C13.5775 32.3613 12.8186 32.1258 11.968 31.7855C11.1828 31.4584 10.5547 31.249 10.5547 31.3014C10.5547 31.5238 11.366 32.4791 11.824 32.7932C12.5699 33.3035 13.3682 33.5391 14.402 33.5391C15.1609 33.5391 15.475 33.4736 16.1162 33.1596C18.8512 31.851 19.4662 28.344 17.3201 26.211C16.6527 25.5305 16.0639 25.2295 15.0693 25.0463C14.2711 24.9024 14.2318 24.8893 14.0225 24.9678Z" fill="#F94655"/>
</svg>
